<svg width="35" height="35" viewBox="0 0 35 35" fill="none" xmlns="http://www.w3.org/2000/svg">
<path d="M9.58638 25.1417C5.29602 20.8514 5.29603 13.8768 9.58638 9.58647C13.8767 5.29611 20.8513 5.29611 25.1416 9.58647C29.432 13.8768 29.432 20.8514 25.1416 25.1417C20.8513 29.4321 13.8767 29.4321 9.58638 25.1417ZM24.0564 10.6717C20.3665 6.98187 14.3615 6.98187 10.6716 10.6717C6.98178 14.3616 6.98178 20.3666 10.6716 24.0565C14.3615 27.7463 20.3665 27.7463 24.0564 24.0565C27.7462 20.3666 27.7462 14.3616 24.0564 10.6717Z" fill="black"/>
<path d="M19.7153 20.8006L13.9273 15.0126C13.6307 14.716 13.6307 14.224 13.9273 13.9274C14.224 13.6308 14.716 13.6308 15.0126 13.9274L20.8006 19.7154C21.0972 20.012 21.0972 20.504 20.8006 20.8006C20.504 21.0973 20.012 21.0973 19.7153 20.8006Z" fill="black"/>
<path d="M13.9274 20.8006C13.6308 20.504 13.6308 20.012 13.9274 19.7154L19.7154 13.9274C20.0121 13.6308 20.504 13.6308 20.8007 13.9274C21.0973 14.224 21.0973 14.716 20.8007 15.0126L15.0127 20.8006C14.716 21.0973 14.2241 21.0973 13.9274 20.8006Z" fill="black"/>
</svg>
