<svg width="20" height="24" viewBox="0 0 20 24" fill="none" xmlns="http://www.w3.org/2000/svg">
<g clip-path="url(#clip0_184_1056)">
<path d="M20.0001 13.4331C19.7453 8.56936 16.465 4.86369 13.7262 2.6345C12.5478 1.65018 11.3695 0.723764 10.1275 0.0868516L9.96823 0L9.80899 0.0868516C5.22301 2.5766 1.52874 6.83233 0.414088 10.9433C-0.413937 13.9542 0.0637698 17.1098 1.71982 19.5995C3.12109 21.7129 5.38224 23.2473 7.86632 23.7973L9.96823 24C12.7708 23.9131 15.0956 22.9578 16.9109 21.1628C19.0128 19.0784 20.0956 16.3281 19.9682 13.4331H20.0001ZM10.7644 22.6104V17.9493C11.3695 17.3703 14.2357 14.8806 14.4268 14.1279V14.07L14.3313 13.5199L13.758 13.4331H13.7262C13.4077 13.4331 12.8982 13.8384 10.7644 15.9807V12.7382L13.3122 9.98794V9.29312C13.344 9.29312 12.7708 9.09047 12.7708 9.09047H12.7071C12.1338 9.14837 11.4969 9.78528 10.7644 10.5959L10.7007 6.74548V6.65862C10.7007 6.28227 10.7007 5.90591 10.2549 5.5585L10.0956 5.4427L9.42683 5.70326L9.36313 5.79011C9.2039 6.07961 9.1402 7.23764 9.23574 10.509C9.23574 10.5959 9.23574 10.6828 9.23574 10.7696L7.77078 9.20627L7.13383 9.00362H7.03829C6.71982 9.09047 6.59243 9.20627 6.49689 9.40893V9.49578C6.46504 9.49578 6.49689 9.58263 6.49689 9.58263C6.56059 10.0458 7.38861 10.9144 8.85358 12.304C9.01281 12.4777 9.17205 12.6224 9.29944 12.7093V15.9228L7.07014 13.7515C6.87906 13.5778 6.62428 13.3752 6.21027 13.4041H6.08288L5.66887 13.8963V14.041C5.8918 14.7069 7.29307 16.0386 8.85358 17.4282C9.04466 17.6019 9.2039 17.7467 9.33129 17.8914V22.5814L8.75804 22.5235C6.71982 22.234 4.7453 21.076 3.47141 19.4548C1.84721 17.3703 1.21027 14.649 1.71982 11.9276C2.54785 7.26659 6.62428 3.73462 9.93638 1.59228L10.4778 1.91074C13.0892 3.64777 17.5797 7.32449 18.4077 12.3908C18.8217 14.9964 18.1529 17.573 16.5606 19.4837C15.0956 21.2207 13.2485 22.234 10.7326 22.6104H10.7644Z" fill="black"/>
</g>
<defs>
<clipPath id="clip0_184_1056">
<rect width="20" height="24" fill="white"/>
</clipPath>
</defs>
</svg>
