<svg width="31" height="25" viewBox="0 0 31 25" fill="none" xmlns="http://www.w3.org/2000/svg">
<g clip-path="url(#clip0_279_976)">
<path d="M19.4883 0L21.0792 4.9936H30.05L26.117 0H19.4883Z" fill="url(#paint0_linear_279_976)"/>
<path d="M10.5617 0L9.28015 3.97721L8.97081 4.9936H0L0.795441 3.97721L3.93301 0H10.5617Z" fill="url(#paint1_linear_279_976)"/>
<path d="M15.025 24.0401L12.7712 21.1676L10.6943 18.5162L1.28154 6.62873L0 4.99365H8.97081L9.5011 6.62873L13.2574 18.5162L14.097 21.1676L15.025 24.0401Z" fill="url(#paint2_linear_279_976)"/>
<path d="M21.0792 4.99365L15.025 24.0401L30.05 4.99365H21.0792Z" fill="#FF820E"/>
<path d="M10.5617 0L8.97083 4.9936H21.0792L19.4883 0H10.5617Z" fill="url(#paint3_linear_279_976)"/>
<path d="M8.97083 4.99365L15.025 24.0401L21.0792 4.99365H8.97083Z" fill="url(#paint4_linear_279_976)"/>
<g style="mix-blend-mode:screen" opacity="0.5">
<path d="M26.117 0H19.4883H10.5617L8.97083 4.9936L15.025 24.04L30.05 4.9936L26.117 0Z" fill="url(#paint5_linear_279_976)"/>
<path d="M13.2574 18.5161L9.5011 6.62868L8.97081 4.9936L9.28015 3.97721L10.5617 0H3.93301L0.795441 3.97721L0 4.9936L1.28154 6.62868L10.6943 18.5161L12.7712 21.1676L15.025 24.04L14.097 21.1676L13.2574 18.5161Z" fill="url(#paint6_linear_279_976)"/>
</g>
</g>
<defs>
<linearGradient id="paint0_linear_279_976" x1="19.4883" y1="2.47471" x2="30.05" y2="2.47471" gradientUnits="userSpaceOnUse">
<stop stop-color="#FFB541"/>
<stop offset="1" stop-color="#FF820E"/>
</linearGradient>
<linearGradient id="paint1_linear_279_976" x1="3.35853" y1="0.574485" x2="8.35213" y2="5.56809" gradientUnits="userSpaceOnUse">
<stop stop-color="#FFB541"/>
<stop offset="1" stop-color="#FF820E"/>
</linearGradient>
<linearGradient id="paint2_linear_279_976" x1="0" y1="14.4948" x2="15.025" y2="14.4948" gradientUnits="userSpaceOnUse">
<stop stop-color="#FFB541"/>
<stop offset="1" stop-color="#FF820E"/>
</linearGradient>
<linearGradient id="paint3_linear_279_976" x1="8.97083" y1="0" x2="21.0792" y2="0" gradientUnits="userSpaceOnUse">
<stop stop-color="#FFB541"/>
<stop offset="1" stop-color="#FF820E"/>
</linearGradient>
<linearGradient id="paint4_linear_279_976" x1="8.97083" y1="14.4948" x2="21.0792" y2="14.4948" gradientUnits="userSpaceOnUse">
<stop stop-color="#FFB541"/>
<stop offset="1" stop-color="#FF820E"/>
</linearGradient>
<linearGradient id="paint5_linear_279_976" x1="8.97083" y1="12.02" x2="30.05" y2="12.02" gradientUnits="userSpaceOnUse">
<stop stop-color="#232020"/>
<stop offset="1" stop-color="#FFB42A"/>
</linearGradient>
<linearGradient id="paint6_linear_279_976" x1="0" y1="12.02" x2="15.025" y2="12.02" gradientUnits="userSpaceOnUse">
<stop stop-color="#232020"/>
<stop offset="1" stop-color="#FFB42A"/>
</linearGradient>
<clipPath id="clip0_279_976">
<rect width="30.05" height="24.04" fill="white"/>
</clipPath>
</defs>
</svg>
