<svg width="15" height="15" viewBox="0 0 15 15" fill="none" xmlns="http://www.w3.org/2000/svg">
<path d="M5.9187 9.54995C5.79995 9.54995 5.6812 9.5062 5.58745 9.41245C5.07495 8.89995 4.7937 8.2187 4.7937 7.49995C4.7937 6.0062 6.0062 4.7937 7.49995 4.7937C8.2187 4.7937 8.89995 5.07495 9.41245 5.58745C9.49995 5.67495 9.54995 5.7937 9.54995 5.9187C9.54995 6.0437 9.49995 6.16245 9.41245 6.24995L6.24995 9.41245C6.1562 9.5062 6.03745 9.54995 5.9187 9.54995ZM7.49995 5.7312C6.52495 5.7312 5.7312 6.52495 5.7312 7.49995C5.7312 7.81245 5.81245 8.11245 5.96245 8.37495L8.37495 5.96245C8.11245 5.81245 7.81245 5.7312 7.49995 5.7312Z" fill="#C1C1C1"/>
<path d="M3.50002 11.5688C3.39377 11.5688 3.28127 11.5313 3.19377 11.4563C2.52502 10.8876 1.92502 10.1875 1.41252 9.37505C0.750024 8.3438 0.750024 6.66255 1.41252 5.62505C2.93752 3.23755 5.15627 1.86255 7.50002 1.86255C8.87502 1.86255 10.2313 2.33755 11.4188 3.2313C11.625 3.38755 11.6688 3.6813 11.5125 3.88755C11.3563 4.0938 11.0625 4.13755 10.8563 3.9813C9.83127 3.2063 8.66877 2.80005 7.50002 2.80005C5.48127 2.80005 3.55002 4.01255 2.20002 6.1313C1.73127 6.86255 1.73127 8.13755 2.20002 8.8688C2.66877 9.60005 3.20627 10.2313 3.80002 10.7438C3.99377 10.9125 4.01877 11.2063 3.85002 11.4063C3.76252 11.5126 3.63127 11.5688 3.50002 11.5688Z" fill="#C1C1C1"/>
<path d="M7.49998 13.1374C6.66873 13.1374 5.85623 12.9687 5.07498 12.6374C4.83748 12.5374 4.72498 12.2624 4.82498 12.0249C4.92498 11.7874 5.19998 11.6749 5.43748 11.7749C6.09998 12.0562 6.79373 12.1999 7.49373 12.1999C9.51248 12.1999 11.4437 10.9874 12.7937 8.86869C13.2625 8.13744 13.2625 6.86244 12.7937 6.13119C12.6 5.82494 12.3875 5.53119 12.1625 5.25619C12 5.05619 12.0312 4.76244 12.2312 4.59369C12.4312 4.43119 12.725 4.45619 12.8937 4.66244C13.1375 4.96244 13.375 5.28744 13.5875 5.62494C14.25 6.65619 14.25 8.33744 13.5875 9.37494C12.0625 11.7624 9.84373 13.1374 7.49998 13.1374Z" fill="#C1C1C1"/>
<path d="M7.93124 10.1687C7.71249 10.1687 7.51249 10.0125 7.46874 9.78747C7.41874 9.53122 7.58749 9.28747 7.84374 9.24372C8.53124 9.11872 9.10624 8.54372 9.23124 7.85622C9.28124 7.59997 9.52499 7.43747 9.78124 7.48122C10.0375 7.53122 10.2062 7.77497 10.1562 8.03122C9.95624 9.11247 9.09374 9.96872 8.01874 10.1687C7.98749 10.1625 7.96249 10.1687 7.93124 10.1687Z" fill="#C1C1C1"/>
<path d="M1.25002 14.2187C1.13127 14.2187 1.01252 14.175 0.918774 14.0812C0.737524 13.9 0.737524 13.6 0.918774 13.4187L5.58752 8.74995C5.76877 8.5687 6.06877 8.5687 6.25002 8.74995C6.43127 8.9312 6.43127 9.2312 6.25002 9.41245L1.58127 14.0812C1.48752 14.175 1.36877 14.2187 1.25002 14.2187Z" fill="#C1C1C1"/>
<path d="M9.0812 6.3874C8.96245 6.3874 8.8437 6.34365 8.74995 6.2499C8.5687 6.06865 8.5687 5.76865 8.74995 5.5874L13.4187 0.918652C13.6 0.737402 13.9 0.737402 14.0812 0.918652C14.2625 1.0999 14.2625 1.3999 14.0812 1.58115L9.41245 6.2499C9.3187 6.34365 9.19995 6.3874 9.0812 6.3874Z" fill="#C1C1C1"/>
</svg>
