<svg width="311" height="268" viewBox="0 0 311 268" fill="none" xmlns="http://www.w3.org/2000/svg">
<g clip-path="url(#clip0_146_1051)">
<path d="M103.7 249.2C103.1 249.2 102.5 249.2 101.9 249.2C101.9 248.6 102.1 248.1 102.1 247.5C102.1 241.7 97.4 237 91.6 237C85.8 237 91.3 237 91.2 237C91.4 236.2 91.5 235.3 91.5 234.4C91.5 227.3 85.7 221.5 78.6 221.5C71.5 221.5 66.5 226.5 65.8 232.9C63.7 231.7 61.3 231 58.7 231C51.7 231 45.9 236 44.6 242.6C43.5 242 42.3 241.7 41 241.7C36.7 241.7 33.3 245.2 33.3 249.4C33.3 253.6 33.5 251.5 33.9 252.4C29.3 252.6 25.2 253.8 22 255.7H119.4C115.7 251.7 110.1 249.1 103.7 249.1V249.2Z" fill="white"/>
<path d="M103.7 249.2C103.1 249.2 102.5 249.2 101.9 249.2C101.9 248.7 102 248.2 102 247.7C100.3 250.1 97.5999 251.6 94.4999 251.6C90.0999 251.6 86.3999 248.5 85.4999 244.4C83.0999 246.6 79.8999 248 76.3999 248C72.8999 248 67.7999 245.7 65.3999 242.1C63.5999 244.6 60.6999 246.2 57.3999 246.2C54.0999 246.2 55.1999 246 54.1999 245.7C53.5999 250 49.8999 253.4 45.3999 253.4C40.8999 253.4 36.3999 249.4 36.3999 244.4C36.3999 239.4 36.3999 243.6 36.3999 243.2C34.3999 244.6 33.1999 246.9 33.1999 249.5C33.1999 252.1 33.3999 251.6 33.7999 252.5C29.1999 252.7 25.0999 253.9 21.8999 255.8H119.3C115.6 251.8 110 249.2 103.6 249.2H103.7Z" fill="#D1E6F8"/>
<path d="M201.7 48.8C205.9 48.8 209.6 50.7001 212 53.7001C213.3 51.9001 215.4 50.6 217.8 50.6C220.2 50.6 218.8 50.6 219.3 50.8C219.3 43.4 225.1 37.3001 232.3 36.7001C232.1 35.8001 232 34.9001 232 33.9001C232 25.0001 239.2 17.8 248.1 17.8C257 17.8 262.6 23.5001 263.9 31.1C267.5 28.5 271.9 26.9 276.6 26.9C288.5 26.9 298.2 36.6 298.2 48.5C298.2 60.4 297.6 54.2001 296.6 56.7001H189.4C191.5 52 196.2 48.8 201.6 48.8H201.7Z" fill="white"/>
<path d="M201.7 48.8C205.9 48.8 209.6 50.7 212 53.7C213.3 51.9 215.4 50.6 217.8 50.6C220.2 50.6 218.8 50.6 219.3 50.8C219.3 48.2 220 45.9 221.2 43.8C224 48.3 229 51.3 234.7 51.3C240.4 51.3 240.2 50.6 242.5 49.3C244.5 50.2 246.7 50.7 249.1 50.7C255 50.7 260.2 47.4 262.9 42.6C265.1 48.7 270.9 53.1 277.8 53.1C284.7 53.1 293.7 46 293.7 37.2C293.7 28.4 293.7 35.6 293.5 34.8C296.6 38.5 298.4 43.3 298.4 48.5C298.4 53.7 297.8 54.2 296.8 56.7H189.6C191.7 52 196.4 48.8 201.8 48.8H201.7Z" fill="#D1E6F8"/>
<path d="M284 131.4C280.1 135.6 283.7 142.1 284.7 147.7C285.1 150 285.1 152.3 284.7 154.5C284.3 156.5 283.5 158.5 282.4 160.2C281.5 161.6 280.1 163 278.5 162.6C276.9 162.2 276.3 160.4 275.9 158.8C275.1 154.8 275.1 150.7 275.8 146.7C276.1 144.7 276.7 142.7 276 140.8C275.3 138.9 272.8 137.6 271.3 138.8C270.8 139.2 270.5 139.9 270.2 140.5C268.2 145.6 269.3 151.3 271.2 156.5C273.1 161.6 275.8 166.4 277.3 171.6C277.8 173.4 278.2 175.2 277.8 177C277.8 177.3 277.7 177.5 277.6 177.8C276.3 181.7 271.9 183.9 268.7 186.7C262.3 192.4 260.2 201.5 254.7 208C248.3 215.7 237.9 219.1 231.3 226.6C228.8 229.5 226.9 232.9 224.2 235.6C221.5 238.3 217.7 240.3 214 239.4C213.4 239.3 212.8 239 212.5 238.5C211.6 237.1 213.4 235.7 214.8 234.8C218.2 232.7 220.6 229 221.2 225C221.6 222.7 221.3 220.1 222.4 218C223.5 215.7 225.9 214.4 227.7 212.6C230.8 209.6 232.4 205.1 231.9 200.7C231.6 197.8 230.3 194.7 231.4 192C233 188.1 238.8 186 238.2 181.9C237.9 179.9 236.1 178.5 234.5 177.3C232 175.5 229.2 173.6 226.1 173.8C224 174 222.1 175 220.2 175.8C213.3 178.4 204.8 176.2 200 170.5C195.3 164.8 194.6 156 198.4 149.7C200.4 146.4 203.5 143.6 204.5 139.9C205.1 137.4 204.7 134.6 206 132.4C207.3 130 210.1 128.8 211.6 126.6C213.4 123.8 213.2 119.8 215.7 117.7C219.2 114.8 224.5 118.1 229 117.7C231.7 117.4 234.1 115.8 236.6 114.7C239.1 113.7 242.4 113.3 244.3 115.3C246.3 117.4 245.6 120.7 245.7 123.6C245.7 126.5 247.9 130.1 250.6 129.1C251.9 128.6 252.6 127.3 253.8 126.6C257.2 124.6 260.8 128.5 264.2 130.4C269.2 133.2 276.2 130.9 278.7 125.8C279.5 124 279.6 121.4 277.8 120.6C276.4 119.9 274.7 120.9 273.1 120.9C269.6 121.1 267.5 115.7 270.2 113.4C272.6 111.3 277.5 111.5 277.7 108.4C277.7 107.4 277.2 106.5 276.9 105.5C275.9 102.6 276.9 99.3999 276.3 96.3999C275.8 93.3999 272.2 90.4999 269.9 92.4999C268.4 93.7999 268.7 96.1999 268.8 98.1999C269 103.9 266.2 109.3 263.4 114.3C263 115.1 262.4 116 261.5 116.1C260 116.3 259.2 114.3 259.1 112.8C258.9 108.7 259.9 104.6 259.1 100.6C258.3 96.5999 254.8 92.6999 250.8 93.3999C250.3 93.4999 249.8 93.6999 249.4 93.9999C248.3 94.9999 248.6 96.7999 249.6 97.8999C250.5 98.9999 251.9 99.6999 253 100.7C255.6 103 256.5 107.1 255 110.3C254.4 111.6 252.8 112.9 251.6 112.1C251.3 111.9 251 111.6 250.8 111.2C247.9 106.9 245.5 102.3 243.8 97.3999C243.5 96.4999 243.2 95.4999 242.4 94.9999C241.4 94.2999 240 94.3999 239 94.9999C234.7 97.1999 234.7 103.3 232 107.3C229 111.7 223.2 113 217.9 113.9C215.2 114.4 212.2 114.7 210.2 112.9C208 110.9 208.3 107.1 210.3 104.9C212.3 102.7 215.4 101.9 218.4 101.7C221.2 101.6 225.1 101.1 225.3 98.2999C225.5 95.4999 221.8 94.3999 220.1 92.1999C218.8 90.3999 218.9 87.6999 220.4 86.0999C221.9 84.4999 224.6 84.0999 226.5 85.2999C227.6 84.3999 227.1 82.4999 227.9 81.3999C229 79.8999 231.5 80.5999 232.9 79.3999C234.8 77.8999 233.4 74.7999 231.6 72.9999C229.9 71.2999 227.7 68.8999 228.8 66.6999C229.8 64.6999 232.7 64.6999 234.6 65.8999C236.4 67.0999 237.5 69.1999 238.9 70.8999C240.3 72.5999 242.3 74.1999 244.5 73.7999C248.2 73.0999 248.6 68.0999 250.3 64.7999C251.1 63.1999 252.4 61.8999 253.1 60.2999C253.8 58.6999 253.7 56.4999 252.2 55.4999C251.2 54.8999 250 54.9999 248.9 54.6999C245.5 53.6999 244.7 49.2999 244.2 45.6999C243.7 42.1999 241.4 37.7999 237.9 38.4999C234.8 39.0999 233.9 43.3999 235.3 46.1999C236.7 48.9999 239.5 50.7999 241.7 53.0999C243.8 55.2999 245.5 58.2999 244.7 61.1999C243.9 64.0999 239.6 65.7999 237.7 63.4999C236.5 61.9999 236.9 59.6999 236.7 57.6999C236.5 55.6999 234.7 53.4999 232.9 54.3999C232.1 54.7999 231.7 55.7999 231.1 56.5999C228.6 59.7999 222.9 57.7999 221.3 54.0999C219.6 50.3999 220.6 46.0999 221.3 42.0999C222 38.0999 222.2 33.4999 219.4 30.4999C218.1 29.0999 216.1 27.7999 216.1 25.8999C216.1 22.7999 220.7 22.3999 223.8 23.1999C228.3 24.2999 232.8 25.4999 237.3 26.5999C217.5 11.9999 193.8 2.4999 168.1 0.399902C168.5 2.1999 168.4 4.3999 169 6.0999C170.1 8.9999 173.2 10.5999 175.6 12.5999C178 14.5999 179.9 18.2999 177.9 20.6999C176.3 22.6999 173 22.4999 171.4 24.3999C170.2 25.8999 170.3 28.1999 169.1 29.6999C168 31.0999 166.2 31.4999 164.6 31.9999C159.4 33.5999 154.3 37.1999 153.5 42.5999C153.2 44.3999 153.5 46.3999 153 48.1999C152.5 49.9999 150.6 51.5999 148.9 50.9999C147.1 50.3999 146.7 48.0999 145.5 46.6999C143.8 44.6999 140.8 44.4999 139 42.6999C137.2 40.7999 137.3 37.5999 138.5 35.1999C139.7 32.7999 141.7 30.8999 143.4 28.8999C143.9 28.2999 144.3 27.6999 144.4 26.9999C144.7 24.7999 141.7 23.3999 141.3 21.1999C140.6 17.9999 145.3 16.2999 146.5 13.1999C147.7 10.2999 145.4 7.0999 145.5 3.9999C145.5 2.7999 145.9 1.5999 146.6 0.599902C143.8 0.799902 141.1 1.0999 138.3 1.4999C137.7 3.5999 136.7 5.6999 135.5 7.4999C134.7 8.6999 133.7 9.7999 132.4 10.2999C131.1 10.8999 129.4 10.6999 128.5 9.5999C128.1 9.0999 127.9 8.3999 127.4 7.9999C126.8 7.4999 125.9 7.3999 125.1 7.3999C123.7 7.4999 122.3 7.9999 120.9 8.1999C119.5 8.4999 118 8.4999 116.8 7.7999C116.4 7.5999 116 7.1999 115.7 6.7999C113.7 7.4999 111.7 8.1999 109.7 8.9999C110 9.8999 110.2 10.8999 109.7 11.6999C109.4 12.1999 108.9 12.5999 108.4 12.9999C105.6 15.1999 102.8 17.3999 100 19.4999C99.6001 19.7999 99.2001 20.0999 98.7001 20.1999C98.3001 20.1999 97.8001 20.1999 97.4001 19.9999C95.8001 19.3999 94.5001 18.1999 93.6001 16.6999C88.2001 19.7999 83.0001 23.1999 78.0001 26.9999C77.6001 27.9999 77.5001 29.1999 77.6001 30.2999C82.1001 25.8999 90.2001 31.1999 95.6001 28.0999C98.8001 26.2999 101.4 21.4999 104.8 22.8999C107.5 23.8999 107.5 27.9999 105.6 30.0999C103.7 32.1999 100.8 32.9999 98.2001 34.0999C90.6001 37.1999 84.4001 43.2999 81.2001 50.7999C80.2001 52.9999 79.5001 55.3999 79.2001 57.7999C78.3001 64.2999 80.2001 71.0999 84.3001 76.1999C90.5001 73.7999 95.3001 67.9999 96.6001 61.3999C97.6001 56.0999 97.6001 48.8999 102.8 47.4999C106.2 46.5999 109.9 49.8999 109.4 53.3999C112 51.2999 116.2 49.1999 118.5 51.6999C121.2 54.5999 117.6 60.0999 120.2 63.0999C121.7 64.8999 124.6 64.6999 126.4 66.1999C129.8 68.8999 126.8 74.7999 122.7 76.1999C118.6 77.5999 114.1 76.4999 109.8 77.1999C105.5 77.7999 100.9 81.6999 102.4 85.7999C104.8 84.7999 107.3 83.7999 109.7 82.6999C111.3 81.9999 113.8 81.6999 114.3 83.3999C114.6 84.2999 114 85.2999 114 86.1999C114 87.5999 115.3 88.5999 116 89.7999C117.4 92.1999 116.4 95.3999 114.4 97.2999C112.4 99.1999 109.7 100.2 107.1 101.1C104.9 98.1999 109.3 92.3999 105.9 91.1999C104 90.4999 102.4 92.7999 101.9 94.7999C101.4 96.7999 100.8 99.1999 98.8001 99.6999C98.1001 99.8999 97.3001 99.6999 96.6001 99.6999C92.5001 99.7999 90.7001 104.9 90.7001 109C90.7001 113.1 91.2001 117.8 88.2001 120.6C86.1001 122.5 82.7001 123 81.3001 125.5C79.9001 128 81.3001 131.1 82.1001 133.9C82.9001 136.7 81.8001 140.8 78.9001 140.7C76.1001 136 79.1001 128 74.1001 125.6C71.3001 124.3 68.1001 126 65.6001 127.9C62.3001 130.4 59.1001 133.4 58.1001 137.4C57.0001 141.4 59.0001 146.4 63.0001 147.3C65.8001 147.9 69.7001 147.1 70.5001 149.8C70.8001 150.9 70.4001 152.1 71.0001 153.1C72.1001 154.9 75.1001 153.3 77.0001 154.2C79.4001 155.3 78.5001 158.9 78.3001 161.5C78.1001 164.3 79.4001 167.3 81.7001 168.8C84.1001 170.3 87.5001 170.2 89.6001 168.3C91.1001 167 91.8001 165 93.0001 163.5C94.2001 162 96.6001 161 98.1001 162.2C96.9001 163.7 95.6001 165.4 95.5001 167.4C95.5001 169.4 97.2001 171.5 99.1001 171C100.9 170.5 101.4 168.3 102.8 167C105.3 164.5 109.6 166 112.3 168.3C115 170.6 117.4 173.6 120.9 174.1C124.3 174.6 128.2 172.6 131 174.5C133.4 176.1 133.5 179.6 134.5 182.3C136 186.7 140.2 189.9 144.8 190.2C149.6 190.5 155.9 188.4 158.3 192.6C158.9 193.7 159.1 195 159.1 196.3C159.5 204.2 156.3 213.7 148.6 215.6C146.2 216.2 142.9 216.4 142.3 218.9C141.4 222.4 147.6 226.2 144.9 228.6C144.2 229.2 143.2 229.3 142.5 229.8C141.7 230.4 141.3 231.4 140.9 232.4C139.2 237.2 137.8 243.3 141.4 246.8C142.8 248.2 144.7 248.9 146.1 250.2C147.5 251.6 148.2 254.1 146.7 255.3C145.6 256.2 144.1 255.9 142.8 255.5C132.4 252.5 123.9 243.5 121.6 232.9C120.1 226 120.3 217.4 114.3 213.7C109.9 211 103.3 211.8 100.5 207.5C99.0001 205.1 99.3001 201.7 97.4001 199.5C95.8001 197.5 92.8001 197 91.2001 195.1C88.8001 192.3 90.1001 188 91.2001 184.4C92.4001 180.9 92.8001 176.1 89.6001 174.2C86.8001 172.5 83.0001 174.4 79.9001 173.4C75.4001 171.9 74.5001 165.6 70.3001 163.3C68.2001 162.1 65.5001 162.2 63.7001 160.6C61.6001 158.8 61.4001 155.3 59.3001 153.4C57.1001 151.4 53.5001 151.9 51.0001 150.3C47.3001 148 47.3001 142.8 47.5001 138.4C47.7001 134.1 47.0001 128.7 43.0001 127.2C39.8001 128.3 40.7001 133.1 42.3001 136.1C43.8001 139.1 44.6001 143.9 41.4001 144.9C38.2001 145.9 36.1001 141.5 36.1001 138.2C36.1001 132.4 37.9001 126.5 36.9001 120.8C36.0001 115.6 32.8001 110.5 34.2001 105.4C35.0001 102.4 37.3001 100.1 38.6001 97.2999C41.4001 91.4999 39.8001 84.6999 37.6001 78.4999C30.5001 94.5999 26.6001 112.4 26.6001 131.1C26.6001 203.4 85.2001 262.1 157.6 262.1C230 262.1 260.5 227.6 279.6 178.9C282.6 171.3 284.9 163.3 286.4 155C287.5 149.1 288.2 143 288.5 136.8C287.4 134.8 286 133.1 284.3 131.6L284 131.4Z" fill="#077BFF"/>
<path d="M248.2 41.7C249.6 42 250.9 41.4999 252.1 40.5999C249.5 37.8999 246.8 35.2 243.9 32.7C244.4 33.5 244.4 34.5999 244.4 35.5999C244.4 38.1999 245.6 41.1 248.1 41.7H248.2Z" fill="#077BFF"/>
<path d="M127.1 78.2C125.8 78.2 124.5 78.8 123.4 79.5C122.8 79.9 122.3 80.3 121.8 80.9C121.3 81.5 121 82.2 120.6 82.9C120.4 83.3 120.1 83.8 119.9 84.3C119.3 85.8 119 87.5 119.9 88.7C120.9 90 122.8 90.1 124.2 90.9C126.3 92.1 127.6 94.7 129.9 95.1C131.4 95.3 132.9 94.5 133.8 93.4C134.7 92.2 135.2 90.7 135.4 89.3C135.7 87.3 135.7 85.2 135 83.4C133.8 80.2 130.3 78.1 126.9 78.3L127.1 78.2Z" fill="#00CC82"/>
<path d="M97.1999 20C97.5999 20.2 98.0999 20.3 98.4999 20.2C98.9999 20.2 99.3999 19.8 99.7999 19.5C102.7 17.4 105.5 15.2 108.2 13C108.7 12.6 109.2 12.2 109.5 11.7C110 10.8 109.8 9.9 109.5 9C103.9 11.2 98.4999 13.7 93.3999 16.6C94.2999 18.1 95.5999 19.3 97.1999 19.9V20Z" fill="#00CC82"/>
<path d="M116.6 7.8C117.8 8.5 119.4 8.5 120.7 8.2C122.1 7.9 123.5 7.5 124.9 7.4C125.7 7.4 126.6 7.4 127.2 8C127.7 8.4 127.9 9.1 128.3 9.6C129.2 10.7 130.9 10.9 132.2 10.3C133.5 9.8 134.5 8.6 135.3 7.5C136.6 5.7 137.5 3.6 138.1 1.5C130.3 2.6 122.7 4.5 115.4 6.9C115.7 7.3 116.1 7.6 116.5 7.9L116.6 7.8Z" fill="#00CC82"/>
<path d="M158.2 192.5C155.8 188.3 149.5 190.4 144.7 190.1C140.1 189.8 135.8 186.5 134.4 182.2C133.5 179.4 133.4 176 130.9 174.4C128 172.5 124.2 174.5 120.8 174C117.3 173.5 114.9 170.5 112.2 168.2C109.5 165.9 105.2 164.4 102.7 166.9C101.4 168.2 100.8 170.4 99.0001 170.9C97.1001 171.4 95.3001 169.3 95.4001 167.3C95.4001 165.3 96.8001 163.6 98.0001 162.1C96.5001 160.9 94.1001 161.9 92.9001 163.4C91.6001 164.9 90.9001 166.9 89.5001 168.2C87.4001 170.1 84.0001 170.2 81.6001 168.7C79.2001 167.2 77.9001 164.2 78.2001 161.4C78.4001 158.7 79.4001 155.2 76.9001 154.1C75.0001 153.2 72.0001 154.8 70.9001 153C70.3001 152.1 70.8001 150.8 70.4001 149.7C69.6001 147 65.6001 147.8 62.9001 147.2C58.9001 146.3 56.9001 141.3 58.0001 137.3C59.1001 133.3 62.3001 130.3 65.5001 127.8C67.9001 125.9 71.2001 124.1 74.0001 125.5C78.9001 127.9 75.9001 135.9 78.8001 140.6C81.7001 140.6 82.7001 136.6 82.0001 133.8C81.2001 131 79.7001 127.9 81.2001 125.4C82.6001 122.9 86.0001 122.5 88.1001 120.5C91.1001 117.7 90.6001 113 90.6001 108.9C90.6001 104.8 92.5001 99.6999 96.5001 99.5999C97.2001 99.5999 98.0001 99.6999 98.7001 99.5999C100.7 99.0999 101.3 96.6999 101.8 94.6999C102.3 92.6999 103.9 90.3999 105.8 91.0999C109.2 92.2999 104.8 98.0999 107 101C109.6 100.1 112.3 99.1999 114.3 97.1999C116.3 95.2999 117.3 92.0999 115.9 89.6999C115.2 88.4999 113.9 87.4999 113.9 86.0999C113.9 85.0999 114.5 84.1999 114.2 83.2999C113.7 81.5999 111.2 81.9999 109.6 82.5999C107.2 83.5999 104.7 84.5999 102.3 85.6999C100.8 81.5999 105.4 77.6999 109.7 77.0999C114 76.4999 118.5 77.4999 122.6 76.0999C126.7 74.6999 129.7 68.7999 126.3 66.0999C124.5 64.5999 121.6 64.7999 120.1 62.9999C117.5 59.9999 121.1 54.4999 118.4 51.5999C116.1 49.0999 112 51.1999 109.3 53.2999C109.8 49.7999 106 46.4999 102.7 47.3999C101.5 47.6999 100.6 48.2999 99.9001 49.0999C99.3001 49.0999 98.6001 49.2999 98.0001 49.5999C97.5001 49.5999 97.0001 49.5999 96.7001 49.8999C96.1001 50.3999 95.7001 51.0999 95.5001 51.8999C95.2001 52.6999 94.9001 53.5999 95.0001 54.3999C95.0001 55.2999 95.6001 56.0999 96.4001 56.3999C96.7001 56.3999 97.0001 56.3999 97.2001 56.3999C96.9001 58.0999 96.7001 59.6999 96.4001 61.2999C95.2001 67.8999 90.4001 73.5999 84.1001 76.0999C80.0001 70.9999 78.1001 64.1999 79.0001 57.6999C79.3001 55.2999 80.1001 52.8999 81.0001 50.6999C81.4001 49.6999 81.9001 48.7999 82.4001 47.8999C82.4001 47.8999 82.5001 47.8999 82.6001 47.8999C85.2001 48.1999 87.6001 49.6999 90.3001 49.8999C90.9001 49.8999 91.5001 49.8999 91.9001 49.4999C92.5001 48.8999 92.3001 47.8999 91.9001 47.0999C90.8001 44.7999 88.6001 43.1999 86.2001 42.4999C89.4001 38.7999 93.5001 35.7999 98.1001 33.9999C100.7 32.8999 103.7 32.0999 105.5 29.9999C107.4 27.8999 107.4 23.7999 104.7 22.7999C101.2 21.4999 98.7001 26.1999 95.5001 27.9999C90.1001 31.0999 81.9001 25.8999 77.5001 30.1999C77.3001 29.0999 77.5001 27.9999 77.9001 26.8999C60.4001 40.2999 46.4001 57.8999 37.5001 78.2999C39.7001 84.4999 41.3001 91.2999 38.5001 97.0999C37.2001 99.8999 34.9001 102.2 34.1001 105.2C32.7001 110.3 35.9001 115.4 36.8001 120.6C37.8001 126.3 36.0001 132.2 36.0001 138C36.0001 141.3 38.1001 145.7 41.3001 144.7C44.5001 143.7 43.7001 138.9 42.2001 135.9C40.7001 132.9 39.8001 128.1 42.9001 127C47.0001 128.5 47.7001 133.9 47.4001 138.2C47.2001 142.5 47.2001 147.8 50.9001 150.1C53.4001 151.7 57.0001 151.2 59.2001 153.2C61.3001 155.1 61.5001 158.5 63.6001 160.4C65.4001 162 68.1001 161.9 70.2001 163.1C74.3001 165.4 75.3001 171.8 79.8001 173.2C82.9001 174.2 86.7001 172.4 89.5001 174C92.7001 175.9 92.3001 180.7 91.1001 184.2C89.9001 187.7 88.6001 192 91.1001 194.9C92.8001 196.9 95.7001 197.3 97.3001 199.3C99.2001 201.5 98.8001 204.9 100.4 207.3C103.1 211.7 109.8 210.8 114.2 213.5C120.2 217.2 120 225.8 121.5 232.7C123.8 243.3 132.3 252.3 142.7 255.3C144 255.7 145.6 255.9 146.6 255.1C148.1 253.9 147.4 251.3 146 250C144.6 248.6 142.7 247.9 141.3 246.6C137.7 243 139.1 237 140.8 232.2C141.1 231.2 141.5 230.2 142.4 229.6C143.1 229.1 144.1 229 144.8 228.4C147.5 226 141.3 222.2 142.2 218.7C142.8 216.3 146.1 216 148.5 215.4C156.2 213.5 159.4 204.1 159 196.1C159 194.8 158.8 193.5 158.2 192.4V192.5Z" fill="#00CC82"/>
<path d="M116.9 24.8001C118.1 25.6001 119.3 26.7001 119.4 28.1001C119.4 29.4001 118.7 30.6001 117.9 31.6001C116.3 33.6001 114.5 35.3001 112.4 36.7001C111.4 37.4001 110.4 38.0001 109.7 38.8001C108.9 39.7001 108.5 40.9001 108.8 42.0001C109.3 43.4001 110.9 44.1001 112.3 44.6001C114 45.2001 115.8 45.8001 117.6 45.7001C119.4 45.6001 121.3 44.8001 122.1 43.2001C123.5 40.5001 121.6 36.6001 123.8 34.4001C124.3 33.9001 125.1 33.5001 125.7 33.1001C127.3 32.0001 128.2 29.9001 128 28.0001C127.9 27.0001 127.5 26.0001 127.1 25.0001C126.2 22.8001 125.2 20.5001 123.4 18.9001C122.6 18.2001 121.6 17.6001 121.1 16.7001C120.4 15.4001 120.7 13.8001 119.8 12.6001C119 11.6001 117.6 11.4001 116.4 11.7001C115.2 12.0001 114.2 12.8001 113.2 13.6001C112.9 13.8001 112.6 14.2001 112.3 14.5001C111.8 15.1001 111.5 15.7001 111.3 16.5001C110.7 18.7001 111.3 21.2001 113.1 22.7001C114.2 23.7001 115.6 24.2001 116.8 24.9001L116.9 24.8001Z" fill="#00CC82"/>
<path d="M175.6 12.7001C173.2 10.7001 170.1 9.2001 169 6.2001C168.4 4.5001 168.4 2.3001 168.1 0.500098C164.5 0.200098 160.9 0.100098 157.3 0.100098C153.7 0.100098 150 0.200098 146.5 0.500098C145.8 1.5001 145.4 2.7001 145.4 3.9001C145.4 7.0001 147.6 10.2001 146.4 13.1001C145.2 16.2001 140.5 17.9001 141.2 21.1001C141.7 23.3001 144.6 24.7001 144.3 26.9001C144.2 27.6001 143.7 28.3001 143.3 28.8001C141.6 30.9001 139.6 32.8001 138.4 35.1001C137.2 37.5001 137 40.7001 138.9 42.6001C140.7 44.5001 143.7 44.7001 145.4 46.6001C146.6 48.0001 147 50.3001 148.8 50.9001C150.6 51.5001 152.4 49.9001 152.9 48.1001C153.4 46.3001 153.2 44.4001 153.4 42.5001C154.2 37.2001 159.4 33.5001 164.5 31.9001C166.1 31.4001 168 30.9001 169 29.6001C170.2 28.1001 170.1 25.8001 171.3 24.3001C172.9 22.4001 176.2 22.5001 177.8 20.6001C179.8 18.2001 177.9 14.5001 175.5 12.5001L175.6 12.7001Z" fill="#00CC82"/>
<path d="M193.4 30.4C193.4 29.1 192.5 27.8 191.3 27.4C190 27 188.6 27.6 187.9 28.7C187.2 29.8 187.2 31.4 186.6 32.5C186.4 32.7 186.1 32.8 185.9 33C184.4 33.9 182.7 34.4 181.1 35.1C180 35.6 178.9 36.2 178.4 37.3C177.6 39 178.8 41.1 180.5 41.9C182.2 42.7 184.2 42.5 186 42.1C188.2 41.6 190.8 40.4 191.1 38.2C191.2 37.4 191.1 36.7 191.1 35.9C191.3 34 193.3 32.5 193.3 30.6L193.4 30.4Z" fill="#00CC82"/>
<path d="M209.9 73.3999C210.2 73.1999 210.6 72.9999 210.8 72.6999C211.3 72.0999 211.3 71.2999 211.2 70.5999C210.9 68.6999 209.3 66.8999 207.4 66.8999C206.5 66.8999 205.6 67.3999 205.1 68.0999C204.4 69.3999 204.5 70.9999 205.4 72.0999C206.4 73.4999 208.4 73.9999 209.9 73.2999V73.3999Z" fill="#00CC82"/>
<path d="M208.7 60C209.1 62 210.5 63.7 211.7 65.3C213 66.9 214.3 68.7 214.5 70.7C214.7 72.2 214.3 73.8 214.1 75.4C213.9 77 214.1 78.7 215.1 79.8C216 80.8 217.4 81.2 218.7 81.3C220.5 81.4 222.4 81 223.8 79.8C225.2 78.7 226 76.8 225.7 75C225 71.8 221 70.5 219.5 67.5C218.6 65.8 218.7 63.9 218.4 62C218 59.6 216.9 57.2 215.1 55.5C214 54.5 212.5 53.7 211.1 53.9C209.7 54.1 208.4 55.7 208.9 57C208.6 57.9 208.5 58.9 208.7 59.8V60Z" fill="#00CC82"/>
<path d="M252.2 40.6001C251 41.4001 249.7 42.0001 248.3 41.7001C245.8 41.2001 244.7 38.2001 244.6 35.6001C244.6 34.6001 244.6 33.5001 244.1 32.7001C241.8 30.7001 239.4 28.7001 236.9 26.8001C232.4 25.7001 227.9 24.5001 223.4 23.4001C220.3 22.6001 215.8 23.0001 215.7 26.1001C215.7 28.0001 217.7 29.3001 219 30.7001C221.7 33.7001 221.5 38.3001 220.9 42.3001C220.2 46.3001 219.3 50.6001 220.9 54.3001C222.6 58.0001 228.3 60.0001 230.7 56.8001C231.3 56.0001 231.6 55.1001 232.5 54.6001C234.3 53.7001 236.1 56.0001 236.3 57.9001C236.5 59.9001 236.1 62.1001 237.3 63.7001C239.2 66.1001 243.5 64.3001 244.3 61.4001C245.1 58.5001 243.4 55.5001 241.3 53.3001C239.1 51.0001 236.3 49.2001 234.9 46.4001C233.5 43.6001 234.4 39.3001 237.5 38.7001C241 38.0001 243.3 42.4001 243.8 45.9001C244.3 49.4001 245.1 53.8001 248.5 54.9001C249.6 55.2001 250.8 55.1001 251.8 55.7001C253.3 56.6001 253.4 58.9001 252.7 60.5001C252 62.1001 250.7 63.4001 249.9 65.0001C248.2 68.3001 247.7 73.3001 244.1 74.0001C241.9 74.4001 239.9 72.8001 238.5 71.1001C237.1 69.4001 236.1 67.3001 234.2 66.1001C232.4 64.9001 229.4 64.9001 228.4 66.9001C227.3 69.1001 229.4 71.5001 231.2 73.2001C232.9 75.0001 234.4 78.1001 232.5 79.6001C231.1 80.7001 228.6 80.1001 227.5 81.6001C226.7 82.8001 227.2 84.7001 226.1 85.5001C224.2 84.3001 221.5 84.7001 220 86.3001C218.5 87.9001 218.4 90.6001 219.7 92.4001C221.4 94.6001 225.1 95.8001 224.9 98.5001C224.7 101.3 220.8 101.8 218 101.9C215 102.1 211.9 102.9 209.9 105.1C207.9 107.3 207.6 111.1 209.8 113.1C211.8 114.9 214.9 114.5 217.5 114.1C222.8 113.2 228.6 111.9 231.6 107.5C234.3 103.5 234.3 97.4001 238.6 95.2001C239.7 94.6001 241.1 94.5001 242 95.2001C242.8 95.8001 243.1 96.7001 243.4 97.6001C245.1 102.5 247.5 107.1 250.4 111.4C250.6 111.7 250.9 112 251.2 112.3C252.4 113.1 254 111.8 254.6 110.5C256.1 107.3 255.2 103.2 252.6 100.9C251.5 99.9001 250.2 99.3001 249.2 98.1001C248.3 97.0001 247.9 95.1001 249 94.2001C249.4 93.8001 249.9 93.7001 250.4 93.6001C254.4 92.8001 257.9 96.8001 258.7 100.8C259.5 104.8 258.6 108.9 258.7 113C258.7 114.5 259.5 116.6 261.1 116.3C262 116.2 262.6 115.3 263 114.5C265.8 109.5 268.6 104.1 268.4 98.4001C268.4 96.4001 268 94.1001 269.5 92.7001C271.8 90.7001 275.4 93.6001 275.9 96.6001C276.4 99.6001 275.4 102.8 276.5 105.7C276.8 106.6 277.4 107.6 277.3 108.6C277.1 111.8 272.2 111.6 269.8 113.6C267.1 115.9 269.2 121.2 272.7 121.1C274.3 121.1 276 120.1 277.4 120.8C279.2 121.6 279.1 124.2 278.3 126C275.9 131.1 268.8 133.4 263.8 130.6C260.4 128.7 256.8 124.7 253.4 126.8C252.3 127.5 251.5 128.8 250.2 129.3C247.5 130.3 245.3 126.7 245.3 123.8C245.3 120.9 245.9 117.6 243.9 115.5C242 113.5 238.8 113.8 236.2 114.9C233.7 116 231.3 117.6 228.6 117.9C224.1 118.4 218.8 115.1 215.3 117.9C212.7 120 213 124.1 211.2 126.8C209.7 129.1 206.9 130.3 205.6 132.6C204.4 134.9 204.8 137.6 204.1 140.1C203.2 143.9 200 146.6 198 149.9C194.2 156.2 194.8 165 199.6 170.7C204.3 176.4 212.9 178.6 219.8 176C221.8 175.2 223.6 174.2 225.7 174C228.8 173.8 231.6 175.7 234.1 177.5C235.8 178.7 237.5 180.1 237.8 182.1C238.4 186.3 232.6 188.3 231 192.2C229.9 194.9 231.1 198 231.5 200.9C232 205.2 230.4 209.7 227.3 212.8C225.5 214.6 223.2 215.9 222 218.2C220.9 220.3 221.2 222.8 220.8 225.2C220.2 229.2 217.8 232.8 214.4 235C213 235.9 211.2 237.3 212.1 238.7C212.4 239.2 213 239.4 213.6 239.6C217.3 240.5 221.2 238.5 223.8 235.8C226.5 233.1 228.4 229.7 230.9 226.8C237.5 219.3 247.9 215.9 254.3 208.2C259.8 201.6 261.9 192.5 268.3 186.9C271.5 184.1 275.9 181.9 277.2 178C277.2 177.7 277.4 177.5 277.4 177.2C277.8 175.4 277.4 173.5 276.9 171.8C275.4 166.6 272.7 161.8 270.8 156.7C268.9 151.6 267.9 145.8 269.8 140.7C270.1 140.1 270.4 139.4 270.9 139C272.5 137.8 274.9 139.1 275.6 141C276.3 142.9 275.8 144.9 275.4 146.9C274.7 150.9 274.8 155 275.5 159C275.8 160.6 276.5 162.4 278.1 162.8C279.7 163.2 281.1 161.8 282 160.4C283.1 158.7 283.9 156.7 284.3 154.7C284.8 152.5 284.8 150.1 284.3 147.9C283.2 142.3 279.7 135.8 283.6 131.6C285.3 133.1 286.7 134.8 287.8 136.8C287.8 134.9 287.9 133 287.9 131.1C287.9 96.1001 274.1 64.2001 251.7 40.7001L252.2 40.6001Z" fill="#00CC82"/>
<path d="M133.6 150.7C135.5 149.8 137.5 149.1 139.6 149.3C133.1 153.2 128.1 159.3 124.6 166.1C121.1 173 119.1 180.6 117.5 188.1C116.3 183 116.8 177.6 117.9 172.4C118.3 170.5 118.8 168.6 119.3 166.7C122.3 160 127 153.8 133.6 150.6V150.7Z" fill="#DAA797"/>
<path d="M197 178.3C196.2 175.8 195.1 173.4 193.5 171.3C190.7 167.8 186.3 165.8 181.8 165.9C178.6 165.9 175.5 167.2 173 169.2C174.8 167.5 176.9 166.1 179.2 165.2C183.7 163.4 188.7 163.3 193.4 164.3C195.5 168.7 196.7 173.4 196.9 178.2L197 178.3Z" fill="#DAA797"/>
<path d="M208.1 164.2C208.8 168.9 208.4 173.8 207.2 178.4C207.3 176.5 206.9 174.5 206.3 172.7C204.7 167.4 202.7 162.2 200.3 157.3C198.4 153.4 196.1 149.5 193.1 146.4C190.3 143.5 186.7 141.2 182.8 140.4C183.7 140 184.7 139.8 185.7 139.8C188.3 139.8 190.8 141.2 192.9 142.7C197.7 146 201.7 150.4 204.8 155.3C206.2 157.6 207.4 160.1 207.9 162.7C207.9 163.1 208 163.5 208.1 163.9C208.1 163.9 208.1 164 208.1 164.1V164.2Z" fill="#DAA797"/>
<path d="M278.2 223.8C276.3 226 274.1 228.1 271.7 229.7C266.4 233.3 259.9 235 253.5 235.2C247.1 235.4 240.7 234.3 234.4 232.7C228.9 231.3 223.3 229.4 219.1 225.6C217.4 227.1 214.9 227.7 212.6 227.8C206.8 228.2 200.9 226.7 196 223.6C193.7 222.2 191.6 220.4 189.1 219.5C186 218.4 182.6 218.9 179.5 220.1C176.5 221.3 173.8 223.2 171.1 225C170 225.8 168.8 226.5 167.5 226.3C166.4 226.1 165.6 225.1 165.3 224.1C165 223.1 165.1 221.9 165.3 220.9C165.7 217.9 166.7 214.8 168.8 212.5C170.5 210.6 172.9 209.4 175.2 208.3C178.1 207 181 205.8 184 204.8C186.9 203.8 189.9 203 192.4 201.4C194.8 199.9 196.9 197.5 197.3 194.8C197.3 194.7 197.3 194.6 197.3 194.5C197.8 190.3 196.1 185.9 193.9 182.2C193.2 180.9 192.3 179.6 191.2 178.6C190.1 177.6 188.9 176.8 187.4 176.6C185.3 176.3 183.3 177.3 181.4 178.2C179.2 179.2 176.9 180.2 174.6 181C173.2 181.5 171.5 182 170.2 181.3C168.3 180.3 168.3 177.4 169.1 175.3C169.9 173 171.3 171 173.1 169.3C175.6 167.3 178.7 166.1 181.9 166C186.3 165.9 190.8 167.9 193.6 171.4C195.2 173.4 196.3 175.9 197.1 178.4C196.8 173.6 195.6 168.8 193.6 164.5C191.5 160.1 188.6 156.1 184.9 152.8C183.6 151.6 182.1 150.5 181 149C179.9 147.6 179.2 145.7 179.6 144C180 142.4 181.2 141.2 182.8 140.5C186.7 141.3 190.3 143.6 193.1 146.5C196.2 149.7 198.4 153.5 200.4 157.4C202.8 162.4 204.9 167.5 206.4 172.8C206.9 174.7 207.4 176.6 207.3 178.5C208.6 173.9 208.9 169 208.2 164.3C208.2 164.3 208.2 164.2 208.2 164.1C208.2 163.7 208.1 163.3 208 162.9C207.8 162 207.6 161.1 207.4 160.2C206.3 155.9 204.3 151.8 203 147.5C202.8 146.7 202.5 145.8 202.8 145C203.4 143.2 205.9 142.9 207.8 143.4C212.7 144.6 216.6 148.4 219 152.8C221.4 157.2 222.4 162.3 223 167.3C223.8 174.1 223.9 181.5 220.9 187.6C224.7 183.2 227.7 178.2 229.7 172.9C230.1 171.9 230.5 170.8 231.2 170C231.9 169.2 233.1 168.6 234.1 169C234.7 169.2 235.1 169.6 235.5 170.1C237.6 172.6 237.9 176.2 237.8 179.5C237.6 182.4 237.1 185.4 236.2 188.1C234.6 192.7 231.9 196.9 228 199.8C231.6 204.4 235.9 208.5 241 211.3C246.3 214.2 252.5 215.7 258.4 214.8C262.6 214.1 267 211.8 268.3 207.8C269 205.8 268.8 203.6 268 201.6L275.8 187.6C276.8 188.6 277.8 189.7 278.7 190.8C281.2 193.8 283.6 197 284.8 200.8C287.3 208.8 283.9 217.7 278.4 224.1L278.2 223.8Z" fill="#E5BAA1"/>
<path d="M126.3 182.9C127.9 179.3 130.1 175.9 133 173.3C136.1 170.5 140.1 168.5 144.2 168.2C147.4 168 150.7 168.8 153.7 170C155.6 170.8 157.4 171.7 158.8 173.1C160.2 174.5 161.3 176.4 161.2 178.4C161.2 180.4 159.8 182.4 157.8 182.9C155.3 183.5 153 181.8 150.7 180.8C145.5 178.6 139 180.2 135.5 184.5C134.1 186.2 133.1 188.3 132.5 190.5C131.7 193.6 131.5 196.9 132.7 199.8C134 203 136.6 205.4 139.6 207C142.6 208.6 146 209.3 149.4 209.7C151.4 210 153.4 210.1 155.3 210.8C160.3 212.4 164.2 217.1 164.8 222.4C164.9 223.5 164.8 224.7 164.2 225.6C163 227.1 160.6 226.6 159 225.8C156.7 224.6 154.7 222.9 152.5 221.6C149.7 220 146.6 219.1 143.4 218.9C141.6 218.9 139.7 219 138.2 219.9C136.8 220.7 135.7 222 134.6 223.1C129.6 228.2 122.3 231.5 115.2 230.4C107.7 241.8 93.7001 248.2 80.0001 247.6C66.2001 246.9 53.0001 239.3 44.7001 228.2C42.2001 224.9 40.1001 221.3 38.8001 217.4C35.5001 207.7 37.2001 197.1 39.5001 187V187.6C39.4001 187.6 48.8001 209.1 68.1001 226.6C71.4001 227.5 73.8001 226.9 77.3001 226.5C82.8001 225.8 88.3001 224.7 93.3001 222.3C98.0001 220.1 102.3 216.5 104.7 211.9C97.1001 205.4 92.0001 196 90.9001 186.1C90.4001 182 90.6001 177.5 92.7001 173.9C93.0001 173.3 93.5001 172.7 94.0001 172.4C95.1001 171.8 96.5001 172.1 97.5001 172.9C98.4001 173.7 99.0001 174.9 99.4001 176.1C100.6 179.4 101 183 102 186.4C103 189.6 104.5 192.8 107.2 194.8V194.6C107.2 194.6 107.2 194.4 107.1 194.2C105.5 188.4 104.7 182.5 105 176.5C105.4 170.5 106.9 164.6 109.9 159.5C111.5 156.8 113.5 154.2 116.1 152.5C116.9 152 117.8 151.5 118.7 151.4C119.6 151.3 120.7 151.5 121.3 152.2C122.4 153.4 122.1 155.2 121.7 156.8C120.9 160.1 119.8 163.3 119 166.6C118.5 168.5 118 170.4 117.6 172.3C116.5 177.5 116 182.9 117.2 188C118.8 180.4 120.8 172.9 124.3 166C127.7 159.2 132.8 153 139.3 149.2C139.6 149.2 139.9 149.2 140.1 149.3C141.3 149.6 142.6 150.3 142.9 151.6C143.2 153 142.2 154.3 141.2 155.3C139.8 156.7 138.2 158.1 136.8 159.6C130.8 165.8 127 174.2 126.1 182.8L126.3 182.9Z" fill="#E5BAA1"/>
<path d="M164.6 229.8C134.5 216.2 134.7 199.3 134.7 199.3C134.1 190.8 140.5 183.4 149 182.9C154.3 182.5 159.2 184.9 162.2 188.8C164.7 184.5 169.2 181.5 174.5 181.1C183 180.5 190.3 186.9 190.9 195.4C192.8 213.1 164.5 229.8 164.5 229.8H164.6Z" fill="#FF7676"/>
<path d="M110.9 73.5999C109.7 79.1999 105.9 83.1999 102.5 82.4999C99.0999 81.6999 97.2999 76.5999 98.5999 70.8999C99.7999 65.2999 103.6 61.2999 107 61.9999C110.4 62.7999 112.2 67.8999 110.9 73.5999Z" fill="#2D2E82"/>
<path d="M154.5 75.7999C153.3 81.3999 149.5 85.3999 146.1 84.6999C142.7 83.8999 140.9 78.7999 142.2 73.0999C143.4 67.4999 147.2 63.4999 150.6 64.1999C154 64.9999 155.8 70.0999 154.5 75.7999Z" fill="#2D2E82"/>
<path d="M92.1001 103.4C92.3001 107.2 87.0001 110.6 80.2001 111.1C73.4001 111.5 67.7001 108.8 67.5001 105C67.3001 101.2 72.6001 97.8 79.4001 97.3C86.2001 96.9 91.9001 99.6 92.1001 103.4Z" fill="#FF7676"/>
<path d="M186.3 101.2C186.5 105 181.2 108.4 174.4 108.9C167.6 109.3 161.9 106.6 161.7 102.8C161.5 99.0001 166.8 95.6001 173.6 95.1001C180.4 94.7001 186.1 97.4001 186.3 101.2Z" fill="#FF7676"/>
<path d="M98.4001 118.2C103.1 125.8 111.1 130.8 119.9 132.2C128.7 133.6 137.3 130.9 144.1 125.4C150.9 119.9 151 118.3 153 113.8C155 109.3 151.9 111.9 151.5 112.9C148.2 120.4 141.8 126.4 134.1 129.3C126.4 132.2 117.3 131.4 109.9 127.3C102.5 123.2 101.9 121.8 99.1001 117.9C96.3001 114 98.3001 117.9 98.5001 118.2H98.4001Z" fill="#2D2E82"/>
<path d="M232.6 263.3C232.1 263.3 231.6 263.3 231.2 263.3C232.1 261.1 232.6 258.7 232.6 256.2C232.6 246 224.3 237.8 214.2 237.8C204.1 237.8 196 245.8 195.8 255.8C194.7 255.4 193.6 255.2 192.4 255.2C187.1 255.2 182.9 259.4 182.9 264.5C182.9 269.6 183.1 266.5 183.4 267.5H248.5C245.4 265 239.5 263.4 232.7 263.4L232.6 263.3Z" fill="white"/>
<path d="M232.6 263.3C232.1 263.3 231.6 263.3 231.2 263.3C232.1 261.1 232.6 258.7 232.6 256.2C232.6 251.4 230.8 247.1 227.8 243.8C228.6 245.5 229 247.4 229 249.4C229 257 222.8 263.2 215.2 263.2C207.6 263.2 211.3 262.8 209.5 262C207.1 264.1 204 265.3 200.5 265.3C194.6 265.3 189.5 261.6 187.5 256.3C184.6 257.9 182.7 260.9 182.7 264.4C182.7 267.9 182.9 266.4 183.2 267.4H248.3C245.2 264.9 239.3 263.3 232.5 263.3H232.6Z" fill="#D1E6F8"/>
<path d="M48.9 161.7C49.2 160.8 49.4 159.8 49.4 158.8C49.4 154.1 45.5999 150.2 40.7999 150.2C36 150.2 37.7999 150.6 36.5 151.4C34.9 146.8 30.6 143.5 25.5 143.5C20.4 143.5 13.9 148.7 13.9 155.1C13.9 161.5 14.4 158.9 15.2 160.5C8.89995 161.2 4.69995 162.4 4.69995 163.7H33.4C33.4 163.7 33.6 163.5 33.7 163.5C33.7 163.5 33.8 163.7 33.9 163.7H52.5999C52.5999 163 51.2999 162.3 49 161.7H48.9Z" fill="white"/>
<path d="M302.9 136.7C303.1 136.2 303.2 135.6 303.2 135C303.2 132.6 301.3 130.7 298.9 130.6C299 129.9 299.1 129.1 299.1 128.3C299.1 121.1 293.3 115.3 286.1 115.3C278.9 115.3 274 120.2 273.2 126.7C272.6 126.5 272 126.4 271.3 126.4C269.5 126.4 267.9 127.2 266.9 128.5C265.3 126.3 262.8 124.9 259.9 124.9C255.1 124.9 251.2 128.8 251.2 133.6C251.2 138.4 251.3 135.2 251.5 136C246.6 136.1 242.6 137.4 241.2 139.1H310.8C309.3 137.9 306.4 137 302.9 136.7Z" fill="white"/>
<path d="M302.9 136.7C302.9 136.7 302.9 136.6 302.9 136.5C301.8 137 300.6 137.3 299.3 137.3C295.1 137.3 291.6 134.3 290.9 130.3C288.9 133 285.7 134.7 282 134.7C278.3 134.7 275.4 133.1 273.4 130.6C272.3 132.4 270.2 133.7 267.9 133.7C265.6 133.7 265.6 133.4 264.7 132.8C263.5 135.8 260.5 137.9 257.1 137.9C253.7 137.9 252.7 137 251.2 135.4C251.2 135.6 251.3 135.9 251.4 136.1C246.5 136.2 242.5 137.5 241.1 139.2H310.7C309.2 138 306.3 137.1 302.8 136.8L302.9 136.7Z" fill="#D1E6F8"/>
<path d="M72.8 68.2C72.8 67.7 72.8 67.3001 72.8 66.8001C72.8 60.1001 67.4 54.7001 60.7 54.7001C54 54.7001 58.2 54.9 57.1 55.3C57.1 55.3 57.1 55.3001 57.1 55.2001C57.1 45.3001 49.1 37.3 39.2 37.3C29.3 37.3 22.1 44.5001 21.4 53.7001C19.7 52.5001 17.6 51.8 15.4 51.8C9.5 51.8 4.7 56.6 4.7 62.5C4.7 68.4 5.3 66.6001 6.4 68.3001C3.7 68.7001 1.4 69.7 0 71.1H77.9C76.9 70 75.1 69.1 72.7 68.5L72.8 68.2Z" fill="white"/>
<path d="M72.7999 68.1999C72.7999 67.6999 72.7999 67.2999 72.7999 66.7999C72.7999 63.3999 71.3999 60.2999 69.0999 58.0999C68.8999 63.3999 64.6999 67.6999 59.3999 67.6999C54.0999 67.6999 52.4999 65.5999 50.7999 62.4999C48.0999 63.9999 44.8999 64.8999 41.4999 64.8999C38.0999 64.8999 35.8999 64.2999 33.4999 63.1999C30.9999 66.7999 26.7999 69.1999 22.0999 69.1999C14.3999 69.1999 8.1999 62.9999 8.1999 55.2999C8.1999 47.5999 8.1999 54.7999 8.1999 54.4999C5.9999 56.4999 4.5999 59.2999 4.5999 62.4999C4.5999 65.6999 5.1999 66.5999 6.2999 68.2999C3.5999 68.6999 1.2999 69.6999 -0.100098 71.0999H77.7999C76.7999 69.9999 74.9999 69.0999 72.5999 68.4999L72.7999 68.1999Z" fill="#D1E6F8"/>
</g>
<defs>
<clipPath id="clip0_146_1051">
<rect width="310.8" height="267.5" fill="white"/>
</clipPath>
</defs>
</svg>
