<svg width="45" height="36" viewBox="0 0 45 36" fill="none" xmlns="http://www.w3.org/2000/svg">
<g clip-path="url(#clip0_279_988)">
<path d="M29.1838 0L31.5662 7.47794H45L39.1103 0H29.1838Z" fill="url(#paint0_linear_279_988)"/>
<path d="M15.8162 0L13.8971 5.95588L13.4338 7.47794H0L1.19118 5.95588L5.88971 0H15.8162Z" fill="url(#paint1_linear_279_988)"/>
<path d="M22.5 36L19.125 31.6986L16.0147 27.728L1.91912 9.9265L0 7.47797H13.4338L14.2279 9.9265L19.8529 27.728L21.1103 31.6986L22.5 36Z" fill="url(#paint2_linear_279_988)"/>
<path d="M31.5662 7.47797L22.5 36L45 7.47797H31.5662Z" fill="#B5B5B5"/>
<path d="M15.8162 0L13.4338 7.47794H31.5662L29.1838 0H15.8162Z" fill="url(#paint3_linear_279_988)"/>
<path d="M13.4338 7.47797L22.5 36L31.5662 7.47797H13.4338Z" fill="url(#paint4_linear_279_988)"/>
</g>
<defs>
<linearGradient id="paint0_linear_279_988" x1="29.1838" y1="3.70588" x2="45" y2="3.70588" gradientUnits="userSpaceOnUse">
<stop stop-color="#EAEAEA"/>
<stop offset="1" stop-color="#B5B5B5"/>
</linearGradient>
<linearGradient id="paint1_linear_279_988" x1="5.02941" y1="0.860294" x2="12.5074" y2="8.33823" gradientUnits="userSpaceOnUse">
<stop stop-color="#EAEAEA"/>
<stop offset="1" stop-color="#B5B5B5"/>
</linearGradient>
<linearGradient id="paint2_linear_279_988" x1="0" y1="21.7059" x2="22.5" y2="21.7059" gradientUnits="userSpaceOnUse">
<stop stop-color="#EAEAEA"/>
<stop offset="1" stop-color="#B5B5B5"/>
</linearGradient>
<linearGradient id="paint3_linear_279_988" x1="13.4338" y1="0" x2="31.5662" y2="0" gradientUnits="userSpaceOnUse">
<stop stop-color="#EAEAEA"/>
<stop offset="1" stop-color="#B5B5B5"/>
</linearGradient>
<linearGradient id="paint4_linear_279_988" x1="13.4338" y1="21.7059" x2="31.5662" y2="21.7059" gradientUnits="userSpaceOnUse">
<stop stop-color="#EAEAEA"/>
<stop offset="1" stop-color="#B5B5B5"/>
</linearGradient>
<clipPath id="clip0_279_988">
<rect width="45" height="36" fill="white"/>
</clipPath>
</defs>
</svg>
