<svg width="17" height="18" viewBox="0 0 17 18" fill="none" xmlns="http://www.w3.org/2000/svg">
<g clip-path="url(#clip0_157_805)">
<path d="M15.5455 18H10.6364C10.4091 18 10.2273 17.8209 10.2273 17.5971V13.4329C10.2273 12.5374 9.45455 11.7762 8.54545 11.7762C7.63636 11.7762 6.86364 12.5374 6.86364 13.4329V17.5971C6.86364 17.8209 6.68182 18 6.45455 18H1.5C1.09091 18 0.727273 17.8657 0.454545 17.5523C0.181818 17.2836 0 16.9254 0 16.5224V7.9702C0 7.92542 0 7.88065 0 7.83587C0 7.74632 0.0454545 7.65677 0.136364 7.56721L7.68182 0.313482C8.13636 -0.134279 8.86364 -0.134279 9.31818 0.313482L16.8636 7.56721C16.8636 7.56721 16.9091 7.65677 16.9545 7.65677C17 7.74632 17 7.88065 17 7.92542V16.4777C17 16.8806 16.8636 17.2389 16.5455 17.5075C16.2727 17.7762 15.9091 17.9553 15.5 17.9553L15.5455 18ZM11.0455 17.1493H15.5C15.6818 17.1493 15.8182 17.1045 15.9545 16.9702C16.0909 16.8359 16.1364 16.7015 16.1364 16.5224V8.05975L8.72727 0.940348C8.59091 0.850795 8.40909 0.850795 8.31818 0.940348L0.863636 8.05975V16.5224C0.863636 16.7015 0.909091 16.8359 1.04545 16.9702C1.18182 17.1045 1.31818 17.1493 1.5 17.1493H5.95455V13.3881C5.95455 12 7.09091 10.8806 8.5 10.8806C9.90909 10.8806 11.0455 12 11.0455 13.3881V17.1493ZM0 7.83587C0 7.83587 0 7.83587 0 7.88065C0 7.88065 0 7.88065 0 7.83587Z" fill="white"/>
</g>
<defs>
<clipPath id="clip0_157_805">
<rect width="17" height="18" fill="white"/>
</clipPath>
</defs>
</svg>
