<svg width="20" height="24" viewBox="0 0 20 24" fill="none" xmlns="http://www.w3.org/2000/svg">
<path d="M20 13.4331C19.7452 8.56936 16.465 4.86369 13.7261 2.6345C12.5478 1.65018 11.3694 0.723764 10.1274 0.0868516L9.96817 0L9.80893 0.0868516C5.22294 2.5766 1.52868 6.83233 0.414027 10.9433C-0.413998 13.9542 0.0637088 17.1098 1.71976 19.5995C3.12103 21.7129 5.38218 23.2473 7.86626 23.7973L9.96817 24C12.7707 23.9131 15.0956 22.9578 16.9108 21.1628C19.0128 19.0784 20.0956 16.3281 19.9682 13.4331H20ZM10.7643 22.6104V17.9493C11.3694 17.3703 14.2357 14.8806 14.4268 14.1279V14.07L14.3312 13.5199L13.758 13.4331H13.7261C13.4077 13.4331 12.8981 13.8384 10.7643 15.9807V12.7382L13.3121 9.98794V9.29312C13.344 9.29312 12.7707 9.09047 12.7707 9.09047H12.707C12.1338 9.14837 11.4968 9.78528 10.7643 10.5959L10.7007 6.74548V6.65862C10.7007 6.28227 10.7007 5.90591 10.2548 5.5585L10.0956 5.4427L9.42677 5.70326L9.36307 5.79011C9.20384 6.07961 9.14014 7.23764 9.23568 10.509C9.23568 10.5959 9.23568 10.6828 9.23568 10.7696L7.77072 9.20627L7.13377 9.00362H7.03823C6.71976 9.09047 6.59237 9.20627 6.49683 9.40893V9.49578C6.46498 9.49578 6.49683 9.58263 6.49683 9.58263C6.56052 10.0458 7.38855 10.9144 8.85352 12.304C9.01275 12.4777 9.17199 12.6224 9.29938 12.7093V15.9228L7.07008 13.7515C6.879 13.5778 6.62422 13.3752 6.21021 13.4041H6.08282L5.6688 13.8963V14.041C5.89173 14.7069 7.29301 16.0386 8.85352 17.4282C9.0446 17.6019 9.20384 17.7467 9.33122 17.8914V22.5814L8.75798 22.5235C6.71976 22.234 4.74524 21.076 3.47135 19.4548C1.84715 17.3703 1.21021 14.649 1.71976 11.9276C2.54779 7.26659 6.62422 3.73462 9.93632 1.59228L10.4777 1.91074C13.0892 3.64777 17.5796 7.32449 18.4077 12.3908C18.8217 14.9964 18.1529 17.573 16.5605 19.4837C15.0956 21.2207 13.2484 22.234 10.7325 22.6104H10.7643Z" fill="white"/>
</svg>
