<svg width="40" height="40" viewBox="0 0 40 40" fill="none" xmlns="http://www.w3.org/2000/svg">
<g clip-path="url(#clip0_304_896)">
<path d="M19.9979 8.76944C18.9059 8.76944 18.0214 7.88065 18.0214 6.79293V1.97651C18.0214 0.884563 18.9102 0 19.9979 0C21.0856 0 21.9744 0.888795 21.9744 1.97651V6.7887C21.9744 7.88065 21.0856 8.76521 19.9979 8.76521V8.76944Z" fill="url(#paint0_linear_304_896)"/>
<path d="M13.3954 10.5386C12.6886 10.5386 12.0326 10.1576 11.6813 9.54819L9.27311 5.37932C8.72713 4.4355 9.05302 3.22082 9.99684 2.67484C10.2973 2.50131 10.6402 2.4082 10.9872 2.4082C11.694 2.4082 12.35 2.78912 12.7013 3.39857L15.1095 7.56745C15.6555 8.51126 15.3296 9.72595 14.3858 10.2719C14.0853 10.4454 13.7425 10.5386 13.3954 10.5386Z" fill="url(#paint1_linear_304_896)"/>
<path d="M8.562 15.3719C8.21495 15.3719 7.87213 15.2788 7.57163 15.1053L3.40276 12.697C2.94567 12.4346 2.61977 12.0072 2.48011 11.4951C2.34467 10.9829 2.41239 10.4497 2.67903 9.99257C3.03031 9.38311 3.68633 9.0022 4.39313 9.0022C5.09994 9.0022 5.08301 9.09531 5.3835 9.26884L9.55237 11.677C10.4962 12.223 10.8221 13.4335 10.2761 14.3815C9.92482 14.991 9.26881 15.3719 8.562 15.3719Z" fill="url(#paint2_linear_304_896)"/>
<path d="M1.97651 21.9787C0.884563 21.9787 0 21.0899 0 20.0021C0 18.9144 0.888795 18.0256 1.97651 18.0256H6.7887C7.88065 18.0256 8.76521 18.9144 8.76521 20.0021C8.76521 21.0899 7.87641 21.9787 6.7887 21.9787H1.97651Z" fill="url(#paint3_linear_304_896)"/>
<path d="M4.39322 30.9893C3.68641 30.9893 3.0304 30.6084 2.67911 29.999C2.13314 29.0551 2.45903 27.8405 3.40284 27.2945L7.57171 24.8863C7.87221 24.7127 8.21503 24.6196 8.56209 24.6196C9.26889 24.6196 9.92491 25.0005 10.2762 25.61C10.5386 26.0671 10.6105 26.6004 10.4751 27.1125C10.3397 27.6246 10.0096 28.0478 9.55246 28.3145L5.38359 30.7227C5.08309 30.8962 4.74027 30.9893 4.39322 30.9893Z" fill="url(#paint4_linear_304_896)"/>
<path d="M10.9872 37.5834C10.6402 37.5834 10.2973 37.4902 9.99684 37.3167C9.05302 36.7707 8.72713 35.5603 9.27311 34.6122L11.6813 30.4434C12.0326 29.8339 12.6886 29.453 13.3954 29.453C14.1022 29.453 14.0853 29.5461 14.3858 29.7196C15.3296 30.2656 15.6555 31.4761 15.1095 32.4241L12.7013 36.593C12.35 37.2024 11.694 37.5834 10.9872 37.5834Z" fill="url(#paint5_linear_304_896)"/>
<path d="M19.9979 40C18.9059 40 18.0214 39.1112 18.0214 38.0234V33.2113C18.0214 32.1193 18.9102 31.2347 19.9979 31.2347C21.0856 31.2347 21.9744 32.1235 21.9744 33.2113V38.0234C21.9744 39.1154 21.0856 40 19.9979 40Z" fill="url(#paint6_linear_304_896)"/>
<path d="M29.0129 37.5834C28.306 37.5834 27.65 37.2024 27.2987 36.593L24.8905 32.4241C24.3446 31.4803 24.6705 30.2656 25.6143 29.7196C25.9148 29.5461 26.2576 29.453 26.6046 29.453C27.3114 29.453 27.9675 29.8339 28.3187 30.4434L30.727 34.6122C31.2729 35.5561 30.947 36.7707 30.0032 37.3167C29.7027 37.4902 29.3599 37.5834 29.0129 37.5834Z" fill="url(#paint7_linear_304_896)"/>
<path d="M35.6068 30.9893C35.2597 30.9893 34.9169 30.8962 34.6164 30.7227L30.4476 28.3145C29.9905 28.0521 29.6646 27.6246 29.5249 27.1125C29.3895 26.6004 29.4572 26.0671 29.7238 25.61C30.0751 25.0005 30.7311 24.6196 31.4379 24.6196C32.1447 24.6196 32.1278 24.7127 32.4283 24.8863L36.5972 27.2945C37.541 27.8405 37.8669 29.0509 37.3209 29.999C36.9696 30.6084 36.3136 30.9893 35.6068 30.9893Z" fill="url(#paint8_linear_304_896)"/>
<path d="M33.2071 21.9787C32.1152 21.9787 31.2306 21.0899 31.2306 20.0021C31.2306 18.9144 32.1194 18.0256 33.2071 18.0256H38.0193C39.1112 18.0256 39.9958 18.9144 39.9958 20.0021C39.9958 21.0899 39.107 21.9787 38.0193 21.9787H33.2071Z" fill="url(#paint9_linear_304_896)"/>
<path d="M31.4379 15.3719C30.7311 15.3719 30.0751 14.991 29.7238 14.3815C29.1778 13.4377 29.5037 12.223 30.4475 11.677L34.6164 9.26884C34.9169 9.09531 35.2597 9.0022 35.6068 9.0022C36.3136 9.0022 36.9696 9.38311 37.3209 9.99257C37.5833 10.4497 37.6552 10.9829 37.5198 11.4951C37.3844 12.0072 37.0542 12.4304 36.5971 12.697L32.4283 15.1053C32.1278 15.2788 31.7849 15.3719 31.4379 15.3719Z" fill="url(#paint10_linear_304_896)"/>
<path d="M26.6046 10.5386C26.2576 10.5386 25.9148 10.4454 25.6143 10.2719C24.6705 9.72595 24.3446 8.51549 24.8905 7.56745L27.2987 3.39857C27.65 2.78912 28.306 2.4082 29.0129 2.4082C29.7197 2.4082 29.7027 2.50131 30.0032 2.67484C30.947 3.22082 31.2729 4.43127 30.727 5.37932L28.3187 9.54819C27.9675 10.1576 27.3114 10.5386 26.6046 10.5386Z" fill="url(#paint11_linear_304_896)"/>
</g>
<defs>
<linearGradient id="paint0_linear_304_896" x1="-39.6572" y1="4.38472" x2="21.4919" y2="4.38472" gradientUnits="userSpaceOnUse">
<stop stop-color="#D1E6F8"/>
<stop offset="0.4" stop-color="#D1E6F8"/>
<stop offset="0.8" stop-color="#569CE2"/>
<stop offset="1" stop-color="#077BFF"/>
</linearGradient>
<linearGradient id="paint1_linear_304_896" x1="-75.2978" y1="6.4755" x2="23.0367" y2="6.4755" gradientUnits="userSpaceOnUse">
<stop stop-color="#D1E6F8"/>
<stop offset="0.4" stop-color="#D1E6F8"/>
<stop offset="0.8" stop-color="#569CE2"/>
<stop offset="1" stop-color="#077BFF"/>
</linearGradient>
<linearGradient id="paint2_linear_304_896" x1="-94.4705" y1="12.1934" x2="31.1078" y2="12.1934" gradientUnits="userSpaceOnUse">
<stop stop-color="#D1E6F8"/>
<stop offset="0.4" stop-color="#D1E6F8"/>
<stop offset="0.8" stop-color="#569CE2"/>
<stop offset="1" stop-color="#077BFF"/>
</linearGradient>
<linearGradient id="paint3_linear_304_896" x1="-92.9298" y1="19.9979" x2="42.6029" y2="19.9979" gradientUnits="userSpaceOnUse">
<stop stop-color="#D1E6F8"/>
<stop offset="0.4" stop-color="#D1E6F8"/>
<stop offset="0.8" stop-color="#569CE2"/>
<stop offset="1" stop-color="#077BFF"/>
</linearGradient>
<linearGradient id="paint4_linear_304_896" x1="-72.9065" y1="27.8066" x2="52.6717" y2="27.8066" gradientUnits="userSpaceOnUse">
<stop stop-color="#D1E6F8"/>
<stop offset="0.4" stop-color="#D1E6F8"/>
<stop offset="0.8" stop-color="#569CE2"/>
<stop offset="1" stop-color="#077BFF"/>
</linearGradient>
<linearGradient id="paint5_linear_304_896" x1="-41.5279" y1="33.5203" x2="56.8067" y2="33.5203" gradientUnits="userSpaceOnUse">
<stop stop-color="#D1E6F8"/>
<stop offset="0.4" stop-color="#D1E6F8"/>
<stop offset="0.8" stop-color="#569CE2"/>
<stop offset="1" stop-color="#077BFF"/>
</linearGradient>
<linearGradient id="paint6_linear_304_896" x1="-8.15577" y1="35.6152" x2="52.9933" y2="35.6152" gradientUnits="userSpaceOnUse">
<stop stop-color="#D1E6F8"/>
<stop offset="0.4" stop-color="#D1E6F8"/>
<stop offset="0.8" stop-color="#569CE2"/>
<stop offset="1" stop-color="#077BFF"/>
</linearGradient>
<linearGradient id="paint7_linear_304_896" x1="-9.02757" y1="33.5203" x2="89.3028" y2="33.5203" gradientUnits="userSpaceOnUse">
<stop stop-color="#D1E6F8"/>
<stop offset="0.4" stop-color="#D1E6F8"/>
<stop offset="0.8" stop-color="#569CE2"/>
<stop offset="1" stop-color="#077BFF"/>
</linearGradient>
<linearGradient id="paint8_linear_304_896" x1="-2.73835" y1="27.8066" x2="122.84" y2="27.8066" gradientUnits="userSpaceOnUse">
<stop stop-color="#D1E6F8"/>
<stop offset="0.4" stop-color="#D1E6F8"/>
<stop offset="0.8" stop-color="#569CE2"/>
<stop offset="1" stop-color="#077BFF"/>
</linearGradient>
<linearGradient id="paint9_linear_304_896" x1="8.1177" y1="19.9979" x2="143.65" y2="19.9979" gradientUnits="userSpaceOnUse">
<stop stop-color="#D1E6F8"/>
<stop offset="0.4" stop-color="#D1E6F8"/>
<stop offset="0.8" stop-color="#569CE2"/>
<stop offset="1" stop-color="#077BFF"/>
</linearGradient>
<linearGradient id="paint10_linear_304_896" x1="18.8255" y1="12.1934" x2="144.404" y2="12.1934" gradientUnits="userSpaceOnUse">
<stop stop-color="#D1E6F8"/>
<stop offset="0.4" stop-color="#D1E6F8"/>
<stop offset="0.8" stop-color="#569CE2"/>
<stop offset="1" stop-color="#077BFF"/>
</linearGradient>
<linearGradient id="paint11_linear_304_896" x1="24.7424" y1="6.4755" x2="123.073" y2="6.4755" gradientUnits="userSpaceOnUse">
<stop stop-color="#D1E6F8"/>
<stop offset="0.4" stop-color="#D1E6F8"/>
<stop offset="0.8" stop-color="#569CE2"/>
<stop offset="1" stop-color="#077BFF"/>
</linearGradient>
<clipPath id="clip0_304_896">
<rect width="40" height="40" fill="white"/>
</clipPath>
</defs>
</svg>
