<svg width="91" height="103" viewBox="0 0 91 103" fill="none" xmlns="http://www.w3.org/2000/svg">
<path d="M25.7767 42.7605C28.3265 47.9292 27.9015 53.462 24.7851 55.1364C21.6687 56.8108 16.994 53.8988 14.4442 48.73C11.8943 43.5612 12.3193 38.0285 15.4358 36.3541C18.5522 34.6797 23.2269 37.5917 25.7767 42.7605Z" fill="#964400"/>
<path d="M61.1909 42.7605C58.6411 47.9292 59.066 53.462 62.1825 55.1364C65.2989 56.8108 69.9736 53.8988 72.5234 48.73C75.0732 43.5612 74.6482 38.0285 71.5318 36.3541C68.4154 34.6797 63.7407 37.5917 61.1909 42.7605Z" fill="#964400"/>
<path d="M72.9484 90.517C59.8452 85.785 56.6579 85.785 56.6579 85.785L53.6123 62.6347H36.6843L33.6387 85.785C33.6387 85.785 30.4514 85.785 17.3482 90.517C4.24496 95.2489 1.19934 108.426 1.19934 108.426H88.9556C88.9556 108.426 85.91 95.3217 72.8068 90.517H72.9484Z" fill="#AB5300"/>
<path d="M54.8163 71.6619L53.6123 62.6347H36.6843L35.4802 71.6619C41.8548 74.9379 48.3001 74.4283 54.7455 71.6619H54.8163Z" fill="#964400"/>
<path d="M64.0949 38.3925C64.0949 50.1132 55.7371 67.7307 43.4838 67.7307C31.2305 67.7307 22.8728 50.1132 22.8728 38.3925C22.8728 26.6718 32.0805 17.2078 43.4838 17.2078C54.8872 17.2078 64.0949 26.6718 64.0949 38.3925Z" fill="#AB5300"/>
<path d="M62.6782 43.1973L64.0948 44.2892L66.8571 31.4765C66.8571 31.4765 71.3193 28.783 71.6734 24.9974C72.0275 21.2846 67.4237 16.1158 67.4237 16.1158L64.0239 14.951C64.0239 14.951 65.3697 10.6559 67.1404 10.2191C64.6614 8.90868 61.2616 13.2767 61.2616 13.2767C61.2616 13.2767 61.8991 8.47188 59.1368 7.16149C58.2868 7.81669 57.8619 11.4567 57.8619 11.4567C57.8619 11.4567 51.4165 1.41033 39.1632 0.973529C26.8391 0.536732 19.7563 5.9239 19.7563 5.9239L23.581 6.1423C23.581 6.1423 13.5234 12.9127 14.2317 23.6142C15.719 22.231 18.3397 22.595 18.3397 22.595C18.3397 22.595 16.0732 27.9094 17.7731 31.8405C19.4729 35.6989 22.8727 43.1245 22.8727 43.1245L25.3517 42.3237L27.1224 30.5301L40.6506 23.687L36.8967 27.9094C36.8967 27.9094 44.617 29.0741 48.0876 26.5262L46.9543 31.0397C46.9543 31.0397 54.6746 31.6949 57.9327 28.7102C58.7118 31.1853 59.7034 32.4229 59.7034 32.4229L62.6074 43.1245L62.6782 43.1973Z" fill="#210007"/>
<path d="M53.8248 38.1741C53.8248 39.7757 53.1165 41.0133 52.1957 41.0133C51.2749 41.0133 50.5667 39.7029 50.5667 38.1741C50.5667 36.6453 51.2749 35.3349 52.1957 35.3349C53.1165 35.3349 53.8248 36.6453 53.8248 38.1741Z" fill="#3A2626"/>
<path d="M37.1093 38.1741C37.1093 39.7757 36.401 41.0133 35.4802 41.0133C34.5595 41.0133 33.8512 39.7029 33.8512 38.1741C33.8512 36.6453 34.5595 35.3349 35.4802 35.3349C36.401 35.3349 37.1093 36.6453 37.1093 38.1741Z" fill="#3A2626"/>
<g style="mix-blend-mode:multiply">
<path d="M61.0492 44.7989C61.0492 46.1092 59.4201 47.1284 57.437 47.1284C55.4538 47.1284 53.8247 46.1092 53.8247 44.7989C53.8247 43.4885 55.4538 42.4693 57.437 42.4693C59.4201 42.4693 61.0492 43.4885 61.0492 44.7989Z" fill="#DBA18E"/>
</g>
<g style="mix-blend-mode:multiply">
<path d="M33.8512 44.7989C33.8512 46.1092 32.2221 47.1284 30.239 47.1284C28.2558 47.1284 26.6267 46.1092 26.6267 44.7989C26.6267 43.4885 28.2558 42.4693 30.239 42.4693C32.2221 42.4693 33.8512 43.4885 33.8512 44.7989Z" fill="#DBA18E"/>
</g>
<path d="M30.8763 77.6314C27.3349 81.5626 25.7767 85.4938 25.7767 85.4938C25.7767 85.4938 3.4658 91.6817 0.06604 108.353H45.1837V96.9961L32.5054 77.6314H30.8763Z" fill="#077BFF"/>
<path d="M59.7743 77.3402C63.3158 81.2714 64.5907 85.4938 64.5907 85.4938C64.5907 85.4938 86.9016 91.6817 90.3013 108.353H45.1837V96.9961L57.862 77.6314L59.7743 77.3402Z" fill="#077BFF"/>
<path d="M52.7623 87.241L56.2329 94.0841L64.5907 85.4938L55.6663 97.2873L52.7623 87.241Z" fill="#2D2E82"/>
<path d="M37.6051 87.241L34.1345 94.0841L25.7767 85.4938L34.7011 97.2873L37.6051 87.241Z" fill="#2D2E82"/>
<path d="M38.88 51.7148L37.3218 47.9292L39.1633 47.5652L40.7215 42.3965L40.2257 39.8485C40.2257 39.6301 40.2966 39.4117 40.5799 39.3389C40.7924 39.3389 41.0048 39.4117 41.0757 39.7029L41.6423 42.4693L39.8716 48.366L38.5259 48.6572L39.4466 50.8412L46.7419 50.4044L47.3086 47.8564H46.3878C46.1753 47.9292 45.9628 47.7836 45.9628 47.4924C45.9628 47.274 46.1045 47.0556 46.3878 47.0556L48.4418 46.9101L47.4502 51.2052L38.9508 51.7148H38.88Z" fill="#964400"/>
<path d="M44.2629 57.3204H44.1921C43.9796 57.3204 43.7671 57.102 43.7671 56.8836C43.7671 56.6652 43.9796 56.4468 44.1921 56.4468C44.1921 56.4468 46.5294 56.4468 48.9376 54.6268C51.3457 52.734 52.1957 50.3316 52.1957 50.3316C52.2665 50.1132 52.479 49.9676 52.7623 50.0404C52.9748 50.1132 53.1164 50.3316 53.0456 50.6228C52.9748 50.914 52.1957 53.2436 49.5042 55.3548C47.096 57.2476 44.7587 57.3932 44.2629 57.3932V57.3204Z" fill="#964400"/>
</svg>
