<svg width="100" height="102" viewBox="0 0 100 102" fill="none" xmlns="http://www.w3.org/2000/svg">
<path d="M71.1489 44.5997C73.848 44.5997 76.036 40.9818 76.036 36.5189C76.036 32.056 73.848 28.4382 71.1489 28.4382C68.4498 28.4382 66.2617 32.056 66.2617 36.5189C66.2617 40.9818 68.4498 44.5997 71.1489 44.5997Z" fill="#AD7849"/>
<path d="M29.2185 44.5997C31.9176 44.5997 34.1056 40.9818 34.1056 36.5189C34.1056 32.056 31.9176 28.4382 29.2185 28.4382C26.5194 28.4382 24.3313 32.056 24.3313 36.5189C24.3313 40.9818 26.5194 44.5997 29.2185 44.5997Z" fill="#AD7849"/>
<path d="M80.2148 80.781C77.0275 79.6162 74.4069 78.7426 72.2112 78.0147C66.3325 76.1219 62.0119 70.8803 61.162 64.6195L59.3204 50.642H41.0467L39.2052 64.6195C38.3553 70.9531 34.1056 76.1947 28.156 78.0147C25.9603 78.7426 23.3397 79.6162 20.1524 80.781C5.98674 85.9498 2.72864 100.146 2.72864 100.146H97.7094C97.7094 100.146 94.4513 85.9498 80.2856 80.781H80.2148Z" fill="#CC9667"/>
<g opacity="0.5">
<path d="M62.2244 68.6235C61.7286 67.3131 61.3745 66.0027 61.162 64.6195L59.3205 50.642H41.0468L39.2052 64.6195C39.1344 65.2019 38.9927 65.8571 38.8511 66.4395C46.5005 68.1139 54.3625 68.8419 62.2244 68.6963V68.6235Z" fill="#936033"/>
</g>
<path d="M69.5197 33.6797C69.5197 46.3469 75.2568 63.4548 50.1836 63.4548C25.1104 63.4548 30.8475 46.2741 30.8475 33.6797C30.8475 21.0854 37.8595 8.8551 50.1836 8.8551C62.5077 8.8551 69.5197 21.0126 69.5197 33.6797Z" fill="#CC9667"/>
<path d="M58.1873 28.2198C63.2869 31.8597 69.9447 33.1701 75.9652 31.5685C74.9736 31.2773 74.0528 30.7677 73.2737 30.0397C73.982 29.6029 74.6902 29.1661 75.3985 28.6566C74.1944 28.4382 73.4153 27.2006 73.2737 25.963C73.132 24.7254 73.4153 23.4878 73.6278 22.2502C74.3361 16.863 71.8571 11.2575 67.5366 8.12708C63.2161 4.9967 57.3373 4.48711 52.521 6.59829C51.4586 7.03509 50.467 7.69029 49.6879 8.56388C48.6963 9.72867 48.6254 11.0391 49.0504 12.4223C49.4754 13.8782 49.617 15.3342 50.042 16.7902C50.9628 19.7022 52.4502 22.3958 54.4333 24.6526C55.5666 25.963 56.8415 27.1278 58.1873 28.147V28.2198Z" fill="#210007"/>
<path d="M46.9963 3.54072C45.1548 1.86633 42.8174 0.628741 40.3385 0.483142C37.7886 0.264744 35.2388 1.13834 33.0431 2.37593C29.0059 4.77832 25.677 9.43748 26.9519 14.4607C27.2352 15.6982 28.2268 16.9358 27.3769 18.1006C26.4561 19.3382 24.8979 19.2654 23.5521 19.1926C24.4021 19.8478 25.3937 20.4302 26.3853 20.7942C24.7562 21.231 23.1272 22.0318 23.4813 23.9974C23.7646 25.5262 24.7562 26.9822 25.9603 28.0014C28.5101 30.1854 32.0515 30.7677 35.2388 30.1126C37.1512 29.7486 38.9219 28.9478 40.6218 28.0742C42.2508 27.2006 43.8799 26.2542 45.2964 25.0166C46.7838 23.779 47.8463 22.2502 48.5545 20.4302C49.3336 18.4646 49.9003 16.4262 50.3961 14.3879C50.8919 12.5679 51.8835 10.4567 50.8919 8.63669C50.3961 7.7631 49.7586 6.8895 49.1212 6.08871C48.4837 5.21511 47.7046 4.34152 46.9255 3.54072H46.9963Z" fill="#210007"/>
<path d="M59.533 37.3925C59.533 38.8485 58.8956 39.9405 58.0456 39.9405C57.1957 39.9405 56.5582 38.7757 56.5582 37.3925C56.5582 36.0093 57.1957 34.8445 58.0456 34.8445C58.8956 34.8445 59.533 36.0093 59.533 37.3925Z" fill="#3A2626"/>
<path d="M44.4466 37.3925C44.4466 38.8485 43.8091 39.9405 42.9592 39.9405C42.1093 39.9405 41.4718 38.7757 41.4718 37.3925C41.4718 36.0093 42.1093 34.8445 42.9592 34.8445C43.8091 34.8445 44.4466 36.0093 44.4466 37.3925Z" fill="#3A2626"/>
<path d="M66.0492 43.3621C66.0492 44.5269 64.5618 45.4733 62.7911 45.4733C61.0204 45.4733 59.533 44.5269 59.533 43.3621C59.533 42.1973 61.0204 41.2509 62.7911 41.2509C64.5618 41.2509 66.0492 42.1973 66.0492 43.3621Z" fill="#FF7676"/>
<path d="M41.5426 43.3621C41.5426 44.5269 40.0552 45.4733 38.2845 45.4733C36.5138 45.4733 35.0264 44.5269 35.0264 43.3621C35.0264 42.1973 36.5138 41.2509 38.2845 41.2509C40.0552 41.2509 41.5426 42.1973 41.5426 43.3621Z" fill="#FF7676"/>
<path d="M62.2245 44.8909C57.6915 44.8909 54.0792 41.1053 54.0792 36.5189C54.0792 31.9325 57.7623 28.147 62.2245 28.147C66.6867 28.147 70.3697 31.9325 70.3697 36.5189C70.3697 41.1053 66.6867 44.8909 62.2245 44.8909ZM62.2245 29.0206C58.2581 29.0206 55 32.3693 55 36.4461C55 40.5229 58.2581 43.8717 62.2245 43.8717C66.1909 43.8717 69.449 40.5229 69.449 36.4461C69.449 32.3693 66.1909 29.0206 62.2245 29.0206Z" fill="black"/>
<path d="M72.9195 35.4997H69.803C69.5197 35.4997 69.3073 35.2813 69.3073 34.9901C69.3073 34.6989 69.5197 34.4805 69.803 34.4805H72.9195C73.2028 34.4805 73.4153 34.6989 73.4153 34.9901C73.4153 35.2813 73.2028 35.4997 72.9195 35.4997Z" fill="black"/>
<path d="M30.7767 35.4997H27.6602C27.3769 35.4997 27.1644 35.2813 27.1644 34.9901C27.1644 34.6989 27.3769 34.4805 27.6602 34.4805H30.7767C31.06 34.4805 31.2725 34.6989 31.2725 34.9901C31.2725 35.2813 31.06 35.4997 30.7767 35.4997Z" fill="black"/>
<path d="M38.5677 44.8909C34.0347 44.8909 30.4225 41.1053 30.4225 36.5189C30.4225 31.9325 34.1056 28.147 38.5677 28.147C43.0299 28.147 46.713 31.9325 46.713 36.5189C46.713 41.1053 43.0299 44.8909 38.5677 44.8909ZM38.5677 29.0206C34.6014 29.0206 31.3433 32.3693 31.3433 36.4461C31.3433 40.5229 34.6014 43.8717 38.5677 43.8717C42.5341 43.8717 45.7922 40.5229 45.7922 36.4461C45.7922 32.3693 42.5341 29.0206 38.5677 29.0206Z" fill="black"/>
<path d="M46.0047 35.4997C45.8631 35.4997 45.7214 35.4269 45.6506 35.2813C45.5089 35.0629 45.5798 34.7717 45.7923 34.6261C49.3337 32.1509 52.3085 32.2237 54.9291 34.6261C55.1416 34.7717 55.1416 35.1357 54.9291 35.2813C54.7875 35.4997 54.4333 35.4997 54.2917 35.2813C51.9543 33.0973 49.4045 33.0973 46.2881 35.2813C46.2172 35.2813 46.1464 35.3541 46.0047 35.3541V35.4997Z" fill="black"/>
<path d="M50.9628 48.6764C50.3962 48.6764 49.7587 48.5308 49.1213 48.3124C47.9172 47.8756 47.2089 46.5652 47.563 45.2549L48.6963 40.9597L47.9172 39.2125C47.7755 38.9941 47.9172 38.7029 48.1297 38.5573C48.3421 38.4117 48.6255 38.5573 48.7671 38.7757L49.617 40.6685C49.617 40.7413 49.617 40.8869 49.617 40.9597L48.4838 45.4005C48.2713 46.2012 48.6963 47.0748 49.4754 47.2932C50.6795 47.73 51.6711 47.6572 52.4502 47.2204C52.6627 47.0748 52.946 47.2204 53.0876 47.366C53.2293 47.5116 53.0876 47.8756 52.946 48.0212C52.3794 48.3852 51.7419 48.5308 51.0336 48.5308L50.9628 48.6764Z" fill="#A4694C"/>
<path d="M51.8127 54.2092C49.4045 54.2092 47.4213 53.3356 47.2796 53.2628C47.0672 53.19 46.9255 52.8988 47.0672 52.6076C47.138 52.3892 47.4213 52.2436 47.7046 52.3892C47.7046 52.3892 52.6626 54.646 56.3457 51.8068C56.5581 51.6612 56.8415 51.6612 56.9831 51.8796C57.1248 52.098 57.1248 52.3892 56.9123 52.5348C55.2832 53.7724 53.4417 54.1364 51.8835 54.1364L51.8127 54.2092Z" fill="#A4694C"/>
<path d="M90.1308 83.7658C81.7022 77.4322 72.2112 76.1947 72.2112 76.1947C72.2112 76.1947 69.7322 72.7003 68.5282 71.9723C67.3241 71.2443 65.4825 71.6083 65.4825 71.6083L63.2869 76.413C55.7082 82.8194 44.8007 82.8194 37.2221 76.413L35.0264 71.6083C35.0264 71.6083 33.1848 71.1715 31.9808 71.9723C30.7767 72.7731 28.2977 76.1947 28.2977 76.1947C28.2977 76.1947 18.7359 77.4322 10.3781 83.7658C1.94956 90.0994 0.745483 101.383 0.745483 101.383H99.9051C99.9051 101.383 98.701 90.0994 90.2724 83.7658H90.1308Z" fill="#00CC82"/>
</svg>
