<svg width="95" height="97" viewBox="0 0 95 97" fill="none" xmlns="http://www.w3.org/2000/svg">
<path d="M68.1507 43.7433C70.8499 43.7433 73.038 40.1915 73.038 35.8103C73.038 31.429 70.8499 27.8773 68.1507 27.8773C65.4515 27.8773 63.2634 31.429 63.2634 35.8103C63.2634 40.1915 65.4515 43.7433 68.1507 43.7433Z" fill="#AD7849"/>
<path d="M26.2193 43.7433C28.9185 43.7433 31.1066 40.1915 31.1066 35.8103C31.1066 31.429 28.9185 27.8773 26.2193 27.8773C23.5201 27.8773 21.332 31.429 21.332 35.8103C21.332 40.1915 23.5201 43.7433 26.2193 43.7433Z" fill="#AD7849"/>
<path d="M94.0745 96.37H0.295532C0.295532 96.2283 0.295532 96.0867 0.295532 95.945C1.78296 91.9077 6.24526 82.9123 17.0823 79.0875C20.2696 77.9542 22.8903 77.1042 25.0861 76.3959C29.8317 74.9085 33.5148 71.367 35.2148 66.8339C35.4272 66.2672 35.6397 65.6298 35.7814 65.0631C35.9231 64.4965 36.0647 63.9298 36.1356 63.2924L36.4897 60.7425L37.9771 49.6222H56.2513L57.7387 60.7425L58.0929 63.2924C58.0929 63.5757 58.0929 63.7882 58.2345 64.0007C58.2345 64.1423 58.2345 64.284 58.3054 64.4256C58.3054 64.709 58.447 64.9923 58.5178 65.2756C58.6595 65.7714 58.8012 66.3381 59.0137 66.8339C59.0137 66.9755 59.0845 67.1172 59.1553 67.188C60.9261 71.5087 64.5384 74.9793 69.1424 76.3959C71.3381 77.1042 73.9588 77.9542 77.1462 79.0875C87.9832 82.9123 92.4454 91.9785 93.9329 96.0159C93.9329 96.1575 93.9329 96.2992 93.9329 96.37H94.0745Z" fill="#CC9667"/>
<g opacity="0.5">
<path d="M59.2261 67.188C58.7303 65.9131 58.3761 64.6381 58.1636 63.2215L56.3221 49.5513H38.0479L36.2063 63.2215C36.1355 63.7882 35.9938 64.4256 35.8522 64.9923C43.5018 66.6214 51.364 67.4005 59.2261 67.188Z" fill="#936033"/>
</g>
<path d="M66.5217 32.9771C66.5217 45.3723 72.2589 62.1591 47.1851 62.1591C22.1112 62.1591 27.8485 45.3723 27.8485 32.9771C27.8485 20.5818 34.8606 8.68237 47.1851 8.68237C59.5095 8.68237 66.5217 20.5818 66.5217 32.9771Z" fill="#CC9667"/>
<path d="M56.5346 36.6603C56.5346 38.0769 55.8971 39.2102 55.0471 39.2102C54.1972 39.2102 53.5597 38.0769 53.5597 36.6603C53.5597 35.2437 54.1972 34.1104 55.0471 34.1104C55.8971 34.1104 56.5346 35.2437 56.5346 36.6603Z" fill="#3A2626"/>
<path d="M41.4478 36.6603C41.4478 38.0769 40.8103 39.2102 39.9603 39.2102C39.1104 39.2102 38.4729 38.0769 38.4729 36.6603C38.4729 35.2437 39.1104 34.1104 39.9603 34.1104C40.8103 34.1104 41.4478 35.2437 41.4478 36.6603Z" fill="#3A2626"/>
<path d="M63.0509 42.4683C63.0509 43.6016 61.5635 44.5224 59.7927 44.5224C58.022 44.5224 56.5345 43.6016 56.5345 42.4683C56.5345 41.335 58.022 40.4142 59.7927 40.4142C61.5635 40.4142 63.0509 41.335 63.0509 42.4683Z" fill="#FF7676"/>
<path d="M38.5437 42.4683C38.5437 43.6016 37.0563 44.5224 35.2855 44.5224C33.5148 44.5224 32.0273 43.6016 32.0273 42.4683C32.0273 41.335 33.5148 40.4142 35.2855 40.4142C37.0563 40.4142 38.5437 41.335 38.5437 42.4683Z" fill="#FF7676"/>
<path d="M47.9642 47.7097C47.3976 47.7097 46.7601 47.5681 46.1226 47.3556C44.9185 46.9306 44.2102 45.5848 44.5644 44.3807L45.6977 40.2018L44.9185 38.5018C44.7769 38.2893 44.9185 38.006 45.131 37.8644C45.3435 37.7227 45.6268 37.8644 45.7685 38.0769L46.6184 39.9184C46.6184 39.9893 46.6184 40.1309 46.6184 40.2018L45.4852 44.5224C45.2727 45.3015 45.6977 46.1515 46.4768 46.4348C47.6809 46.8598 48.6725 46.789 49.4516 46.364C49.6641 46.2223 49.9475 46.364 50.0891 46.5056C50.2308 46.7181 50.0891 47.0014 49.9475 47.1431C49.3808 47.4973 48.7433 47.6389 48.035 47.6389L47.9642 47.7097Z" fill="#A4694C"/>
<path d="M48.8141 53.0928C46.4059 53.0928 44.4226 52.2429 44.281 52.172C44.0685 52.1012 43.9268 51.8179 44.0685 51.5346C44.1393 51.3221 44.4226 51.1804 44.706 51.3221C44.706 51.3221 49.6641 53.5178 53.3472 50.7554C53.5597 50.6138 53.843 50.6138 53.9847 50.8263C54.1264 51.0388 54.1264 51.3221 53.9139 51.4637C52.2848 52.6678 50.4432 53.0928 48.8849 53.0928H48.8141Z" fill="#A4694C"/>
<path d="M33.3023 0.253601C33.3023 0.253601 25.1569 18.2444 44.0685 22.2109C55.9679 24.69 61.6343 20.086 61.6343 20.086C61.6343 20.086 61.2802 26.6024 64.255 28.2315C65.0342 31.0647 65.7425 33.6146 65.7425 33.6146L67.9382 34.252C67.9382 34.252 70.1339 22.8484 69.6381 19.1652C69.2132 15.5529 67.9382 14.1363 67.9382 14.1363C67.9382 14.1363 69.0007 12.0822 70.8422 11.7989C69.9923 10.9489 66.38 12.0822 66.38 12.0822C66.38 12.0822 66.5216 9.10736 65.1758 7.61993C64.4675 10.7365 64.4675 10.5948 64.4675 10.5948L33.3731 0.253601H33.3023Z" fill="#221E1F"/>
<path d="M35.9939 8.7532C35.2148 9.03652 27.9901 12.0822 25.9361 20.2277C23.9528 28.0898 28.4859 34.0395 28.9818 34.7478H30.3275C30.3275 34.7478 31.3192 28.8689 32.3108 27.8065C33.3024 26.744 35.0731 27.0274 35.9231 24.0525C36.8439 21.0776 37.1981 17.5361 37.1981 17.5361C36.7731 14.6321 36.4189 11.7281 35.9939 8.82403V8.7532Z" fill="#221E1F"/>
<path d="M94.0745 96.37H0.295532C0.295532 96.2283 0.295532 96.0867 0.295532 95.945C1.21632 87.1621 6.52858 82.629 11.6992 79.2291C16.9406 75.7584 26.6443 72.7836 26.6443 72.7836C26.6443 72.7836 26.786 71.0837 27.9901 68.9588C29.1942 66.8339 34.5773 66.6214 34.5773 66.6214L35.3564 66.763L38.048 67.3297C38.048 67.3297 37.9063 71.0837 38.9688 75.9709C40.102 80.7874 47.185 83.8331 47.185 83.8331C47.185 83.8331 54.3389 80.7874 55.4013 75.9709C56.5346 71.1545 56.3929 67.3297 56.3929 67.3297L57.0304 67.188L59.0845 66.763L59.7928 66.6214C59.7928 66.6214 65.1759 66.8339 66.38 68.9588C67.5841 71.0837 67.7258 72.7836 67.7258 72.7836C67.7258 72.7836 77.4295 75.6876 82.6709 79.2291C87.8415 82.629 93.1537 87.2329 94.0745 96.0158C94.0745 96.1575 94.0745 96.2992 94.0745 96.37Z" fill="#FF7676"/>
<g style="mix-blend-mode:multiply" opacity="0.4">
<path d="M57.5262 70.3045L60.147 81.7082C63.051 80.0791 65.4592 77.4584 67.23 73.5627C66.1675 78.0958 63.2635 81.4249 59.7928 84.3997L57.5262 70.3754V70.3045Z" fill="#61378C"/>
</g>
<g style="mix-blend-mode:multiply" opacity="0.4">
<path d="M36.348 70.3045L34.1523 81.354C30.2567 80.0791 28.4859 76.3251 27.1401 73.4919C28.4151 78.7333 31.6733 81.779 35.0731 83.7622L36.348 70.3045Z" fill="#61378C"/>
</g>
</svg>
