<svg width="60" height="48" viewBox="0 0 60 48" fill="none" xmlns="http://www.w3.org/2000/svg">
<g clip-path="url(#clip0_279_995)">
<path d="M38.9119 0L42.0883 9.97059H60.0001L52.1472 0H38.9119Z" fill="url(#paint0_linear_279_995)"/>
<path d="M21.0882 0L18.5294 7.94118L17.9118 9.97059H0L1.58824 7.94118L7.85294 0H21.0882Z" fill="url(#paint1_linear_279_995)"/>
<path d="M30 48L25.5 42.2647L21.3529 36.9706L2.55882 13.2353L0 9.97058H17.9118L18.9706 13.2353L26.4706 36.9706L28.1471 42.2647L30 48Z" fill="url(#paint2_linear_279_995)"/>
<path d="M42.0882 9.97058L30 48L60 9.97058H42.0882Z" fill="#FF820E"/>
<path d="M21.0883 0L17.9119 9.97059H42.0883L38.9119 0H21.0883Z" fill="url(#paint3_linear_279_995)"/>
<path d="M17.9119 9.97058L30.0001 48L42.0883 9.97058H17.9119Z" fill="url(#paint4_linear_279_995)"/>
<g style="mix-blend-mode:screen" opacity="0.5">
<path d="M52.1472 0H38.9119H21.0883L17.9119 9.97059L30.0001 48L60.0001 9.97059L52.1472 0Z" fill="url(#paint5_linear_279_995)"/>
<path d="M26.4706 36.9706L18.9706 13.2353L17.9118 9.97059L18.5294 7.94118L21.0882 0H7.85294L1.58824 7.94118L0 9.97059L2.55882 13.2353L21.3529 36.9706L25.5 42.2647L30 48L28.1471 42.2647L26.4706 36.9706Z" fill="url(#paint6_linear_279_995)"/>
</g>
</g>
<defs>
<linearGradient id="paint0_linear_279_995" x1="38.9119" y1="4.94118" x2="60.0001" y2="4.94118" gradientUnits="userSpaceOnUse">
<stop stop-color="#FFB541"/>
<stop offset="1" stop-color="#FF820E"/>
</linearGradient>
<linearGradient id="paint1_linear_279_995" x1="6.70588" y1="1.14706" x2="16.6765" y2="11.1176" gradientUnits="userSpaceOnUse">
<stop stop-color="#FFB541"/>
<stop offset="1" stop-color="#FF820E"/>
</linearGradient>
<linearGradient id="paint2_linear_279_995" x1="0" y1="28.9412" x2="30" y2="28.9412" gradientUnits="userSpaceOnUse">
<stop stop-color="#FFB541"/>
<stop offset="1" stop-color="#FF820E"/>
</linearGradient>
<linearGradient id="paint3_linear_279_995" x1="17.9119" y1="0" x2="42.0883" y2="0" gradientUnits="userSpaceOnUse">
<stop stop-color="#FFB541"/>
<stop offset="1" stop-color="#FF820E"/>
</linearGradient>
<linearGradient id="paint4_linear_279_995" x1="17.9119" y1="28.9412" x2="42.0883" y2="28.9412" gradientUnits="userSpaceOnUse">
<stop stop-color="#FFB541"/>
<stop offset="1" stop-color="#FF820E"/>
</linearGradient>
<linearGradient id="paint5_linear_279_995" x1="17.9119" y1="24" x2="60.0001" y2="24" gradientUnits="userSpaceOnUse">
<stop stop-color="#232020"/>
<stop offset="1" stop-color="#FFB42A"/>
</linearGradient>
<linearGradient id="paint6_linear_279_995" x1="0" y1="24" x2="30" y2="24" gradientUnits="userSpaceOnUse">
<stop stop-color="#232020"/>
<stop offset="1" stop-color="#FFB42A"/>
</linearGradient>
<clipPath id="clip0_279_995">
<rect width="60" height="48" fill="white"/>
</clipPath>
</defs>
</svg>
