<svg width="24" height="23" viewBox="0 0 24 23" fill="none" xmlns="http://www.w3.org/2000/svg">
<path d="M11.591 21.802C5.89346 21.802 1.26245 17.1829 1.26245 11.5C1.26245 5.81704 5.89346 1.19788 11.591 1.19788C17.2884 1.19788 21.9194 5.81704 21.9194 11.5C21.9194 17.1829 17.2884 21.802 11.591 21.802ZM11.591 2.63538C6.69092 2.63538 2.70364 6.61246 2.70364 11.5C2.70364 16.3875 6.69092 20.3645 11.591 20.3645C16.491 20.3645 20.4783 16.3875 20.4783 11.5C20.4783 6.61246 16.491 2.63538 11.591 2.63538Z" fill="black"/>
<path d="M10.2268 14.9309C10.0346 14.9309 9.85207 14.8542 9.71756 14.72L6.99852 12.0079C6.71989 11.73 6.71989 11.27 6.99852 10.9921C7.27715 10.7142 7.73833 10.7142 8.01696 10.9921L10.2268 13.1963L15.1652 8.27045C15.4439 7.99253 15.9051 7.99253 16.1837 8.27045C16.4623 8.54837 16.4623 9.00837 16.1837 9.28628L10.736 14.72C10.6015 14.8542 10.4189 14.9309 10.2268 14.9309Z" fill="black"/>
</svg>
