<svg width="40" height="40" viewBox="0 0 40 40" fill="none" xmlns="http://www.w3.org/2000/svg">
<g clip-path="url(#clip0_304_881)">
<path d="M20 0C8.95608 0 0 8.95608 0 20C0 31.0439 8.95608 40 20 40C31.0439 40 40 31.0439 40 20C40 8.95608 31.0439 0 20 0ZM26.5803 22.8942C26.3691 23.3741 25.8939 23.6861 25.366 23.6861C24.838 23.6861 25.0012 23.6477 24.8332 23.5757L19.4672 21.2143C18.9873 21.0031 18.6753 20.5232 18.6753 20V8.86009C18.6753 8.13055 19.2705 7.5354 20 7.5354C20.7295 7.5354 21.3247 8.13055 21.3247 8.86009V19.1361L25.8987 21.1471C26.5659 21.4399 26.8731 22.227 26.5755 22.8942H26.5803Z" fill="#077BFF"/>
</g>
<defs>
<clipPath id="clip0_304_881">
<rect width="40" height="40" fill="white"/>
</clipPath>
</defs>
</svg>
