<svg width="78" height="94" viewBox="0 0 78 94" fill="none" xmlns="http://www.w3.org/2000/svg">
<path d="M57.5991 4.57687C46.2665 -3.72228 39.0421 2.82968 39.0421 2.82968C39.0421 2.82968 31.8176 -3.72228 20.485 4.57687C12.9064 10.1096 2.91963 46.5822 9.71914 83.9284C16.0937 83.9284 39.0421 81.3076 39.0421 81.3076C39.0421 81.3076 61.9904 83.9284 68.365 83.9284C75.1645 46.5094 65.1777 10.1096 57.5991 4.57687Z" fill="#210007"/>
<path d="M55.2617 29.4015C55.8991 32.8231 58.1657 35.2983 60.2197 34.8615C62.2737 34.4247 63.4778 31.2943 62.7695 27.8727C62.132 24.4512 59.8655 21.976 57.8115 22.4128C55.7575 22.8496 54.5534 25.9799 55.2617 29.4015Z" fill="#583620"/>
<path d="M23.3182 29.4015C22.6807 32.8231 20.4142 35.2983 18.3602 34.8615C16.3062 34.4247 15.1021 31.2943 15.8104 27.8727C16.4479 24.4512 18.7144 21.976 20.7684 22.4128C22.8224 22.8496 24.0265 25.9799 23.3182 29.4015Z" fill="#583620"/>
<path d="M62.4153 77.9588C51.3661 73.9548 48.6038 73.9548 48.6038 73.9548L46.054 54.3718H31.7467L29.1968 73.9548C29.1968 73.9548 26.5054 73.9548 15.3853 77.9588C4.3361 81.9628 1.71545 93.1011 1.71545 93.1011H76.0852C76.0852 93.1011 73.5353 82.0356 62.4153 77.9588Z" fill="#774F35"/>
<g opacity="0.3">
<path d="M47.2581 63.3989L46.054 54.3718H31.7467L30.5426 63.3989C35.6422 65.7285 41.3793 65.0733 47.2581 63.3989Z" fill="#3E2312"/>
</g>
<path d="M57.3158 30.1295C62.2029 55.2454 46.2665 58.9581 38.9004 58.9581C31.5343 58.9581 15.5271 55.4638 20.485 30.1295C22.3974 20.4472 27.1429 16.2976 38.9004 16.2976C50.6579 16.2976 55.4034 20.4472 57.3158 30.1295Z" fill="#82563A"/>
<path d="M27.8512 20.0832C27.8512 20.0832 31.1093 24.0143 42.0169 26.4167C52.9244 28.8191 55.5451 26.4167 55.5451 26.4167L58.0949 35.8807L59.4406 30.4935C59.4406 30.4935 61.7779 20.7384 55.1909 12.5848C48.6039 4.50407 29.8344 6.97925 26.0097 10.9104C19.281 11.3472 15.3854 19.8648 17.1561 25.6159C17.5811 32.6047 19.6351 37.4823 19.6351 37.4823C19.6351 37.4823 22.964 31.2943 23.389 28.0183C26.5763 25.6159 27.7095 23.7231 27.922 19.9376L27.8512 20.0832Z" fill="#210007"/>
<path d="M47.8247 32.7503C47.8247 34.1335 47.1873 35.2983 46.4081 35.2983C45.629 35.2983 44.9916 34.1335 44.9916 32.7503C44.9916 31.3671 45.629 30.2023 46.4081 30.2023C47.1873 30.2023 47.8247 31.3671 47.8247 32.7503Z" fill="#3A2626"/>
<path d="M31.605 35.2983C32.3874 35.2983 33.0216 34.1575 33.0216 32.7503C33.0216 31.3431 32.3874 30.2023 31.605 30.2023C30.8227 30.2023 30.1885 31.3431 30.1885 32.7503C30.1885 34.1575 30.8227 35.2983 31.605 35.2983Z" fill="#3A2626"/>
<g opacity="0.3">
<path d="M51.012 40.6126C52.7723 40.6126 54.1993 39.7 54.1993 38.5742C54.1993 37.4485 52.7723 36.5359 51.012 36.5359C49.2517 36.5359 47.8247 37.4485 47.8247 38.5742C47.8247 39.7 49.2517 40.6126 51.012 40.6126Z" fill="#FF7676"/>
</g>
<g opacity="0.3">
<path d="M27.0012 40.6126C28.7615 40.6126 30.1885 39.7 30.1885 38.5742C30.1885 37.4485 28.7615 36.5359 27.0012 36.5359C25.241 36.5359 23.814 37.4485 23.814 38.5742C23.814 39.7 25.241 40.6126 27.0012 40.6126Z" fill="#FF7676"/>
</g>
<g style="mix-blend-mode:multiply" opacity="0.4">
<path d="M39.042 43.5246C37.838 43.5246 36.7755 43.015 36.1381 42.5054C35.9964 42.3598 35.9256 42.2142 35.9964 41.9958L37.7671 36.3175L36.9172 35.0071C36.7755 34.7887 36.8464 34.4975 37.0588 34.3519C37.2713 34.2063 37.5546 34.2791 37.6963 34.4975L38.6171 36.0263C38.6879 36.1719 38.6879 36.3175 38.6171 36.3903L36.8464 41.923C37.4838 42.3598 39.3253 43.2334 40.9544 41.7774C41.1669 41.6318 41.4502 41.6318 41.5919 41.7774C41.7335 41.9958 41.7335 42.287 41.5919 42.4326C40.7419 43.1606 39.8211 43.4518 38.9712 43.4518L39.042 43.5246Z" fill="#A4694C"/>
</g>
<g style="mix-blend-mode:multiply" opacity="0.4">
<path d="M39.8211 50.2222C36.7047 50.2222 35.6423 47.4558 35.5714 47.4558C35.5006 47.2374 35.5714 46.9462 35.8548 46.8734C36.0672 46.8006 36.3506 46.8734 36.4214 47.1646C36.4214 47.2374 37.413 49.567 40.1045 49.3486C42.7959 49.1302 43.1501 46.7278 43.2209 46.655C43.2209 46.4366 43.5042 46.2182 43.7167 46.291C43.9292 46.291 44.1417 46.5822 44.0708 46.8006C44.0708 46.8006 43.6459 50.0766 40.1753 50.295C40.0336 50.295 39.892 50.295 39.7503 50.295L39.8211 50.2222Z" fill="#A4694C"/>
</g>
<path d="M70.9148 81.8172C67.0192 77.0852 56.0408 74.4644 56.0408 74.4644L49.6663 72.062C49.6663 72.062 45.7707 77.4492 39.1837 78.0316C32.6675 77.4492 28.7011 72.062 28.7011 72.062L22.3265 74.4644C22.3265 74.4644 11.3482 77.0124 7.45261 81.8172C3.55705 86.5491 0.936401 93.8291 0.936401 93.8291H77.431C77.431 93.8291 74.8103 86.6219 70.9148 81.8172Z" fill="#FF7676"/>
<g style="mix-blend-mode:multiply" opacity="0.6">
<path d="M39.042 81.526C30.401 81.526 26.7887 75.338 26.7179 75.2652L27.1429 75.0468C27.1429 75.0468 30.6843 81.0892 39.042 81.0892C47.3998 81.0892 51.0828 75.1196 51.0828 75.0468L51.437 75.2652C51.437 75.2652 47.6122 81.526 38.9712 81.526H39.042Z" fill="#F2856D"/>
</g>
</svg>
