<svg width="69" height="96" viewBox="0 0 69 96" fill="none" xmlns="http://www.w3.org/2000/svg">
<path d="M34.0433 3.0868C34.0433 3.0868 25.1187 -0.667197 20.3023 1.6702C15.5567 4.00759 1.88647 35.9519 4.86133 46.5765C7.83619 57.1301 13.8567 60.6008 13.8567 60.6008L55.009 61.3799C55.009 61.3799 60.6046 55.501 61.1712 43.2474C61.667 30.923 53.3091 14.3488 48.7051 9.17818C44.1012 3.93676 38.1515 0.041104 33.9725 3.15763L34.0433 3.0868Z" fill="#2D2E82"/>
<path d="M19.0982 31.9146C17.6108 35.6686 14.4942 37.9352 12.1568 37.0144C9.81946 36.0936 9.18198 32.2688 10.6694 28.5856C12.1568 24.8316 15.2734 22.565 17.6108 23.4858C19.9482 24.4066 20.5856 28.2314 19.0982 31.9146Z" fill="#BB8059"/>
<path d="M49.1301 31.9146C50.6175 35.6686 53.7341 37.9352 56.0715 37.0144C58.4088 36.0936 59.0463 32.2688 57.5589 28.5856C56.0715 24.8316 52.9549 22.565 50.6175 23.4858C48.2801 24.4066 47.6427 28.2314 49.1301 31.9146Z" fill="#BB8059"/>
<path d="M55.0799 77.3167C45.3054 72.7127 42.8971 72.7127 42.8971 72.7127L40.6306 50.1888H27.952L25.6854 72.7127C25.6854 72.7127 23.2772 72.7127 13.5027 77.3167C3.72811 81.9207 1.46155 94.7409 1.46155 94.7409H67.1918C67.1918 94.7409 64.9253 81.9915 55.1507 77.3167H55.0799Z" fill="#DAA07A"/>
<g opacity="0.6">
<path d="M41.9763 63.6465L40.6305 50.1888H27.9519L26.677 62.9382C31.7768 63.2923 36.8765 63.5757 41.9763 63.6465Z" fill="#A16740"/>
</g>
<path d="M54.8674 40.1309C54.8674 51.5345 46.5094 58.5467 34.2558 58.5467C22.0022 58.5467 13.6443 51.4637 13.6443 40.1309C13.6443 28.7981 22.8522 9.46149 34.2558 9.46149C45.6595 9.46149 54.8674 28.7273 54.8674 40.1309Z" fill="#DAA07A"/>
<path d="M25.1188 14.6321C25.1188 14.6321 23.0648 22.1401 25.7563 26.4607C26.9604 26.0357 32.4852 24.1233 32.4852 24.1233L33.0518 20.1568L34.3267 25.3983L46.9345 26.1774C46.9345 26.1774 46.722 22.4942 46.5095 19.661C47.9261 22.5651 48.4219 24.9733 48.4219 24.9733L50.6885 25.115C50.6885 25.115 47.2886 6.55747 33.8309 6.91162C20.3732 7.26577 19.3816 23.2025 19.3816 23.2025L22.0023 23.5567C22.0023 23.5567 22.9231 16.2612 25.048 14.7029L25.1188 14.6321Z" fill="#2D2E82"/>
<path d="M42.6846 36.0936C43.5844 36.0936 44.3137 34.8568 44.3137 33.3312C44.3137 31.8056 43.5844 30.5688 42.6846 30.5688C41.7849 30.5688 41.0555 31.8056 41.0555 33.3312C41.0555 34.8568 41.7849 36.0936 42.6846 36.0936Z" fill="#3A2626"/>
<path d="M27.5978 33.3312C27.5978 34.8895 26.8895 36.0936 25.9687 36.0936C25.0479 36.0936 24.3396 34.8187 24.3396 33.3312C24.3396 31.8438 25.0479 30.5688 25.9687 30.5688C26.8895 30.5688 27.5978 31.8438 27.5978 33.3312Z" fill="#3A2626"/>
<path d="M47.9261 41.9725C49.9211 41.9725 51.5384 40.9577 51.5384 39.706C51.5384 38.4542 49.9211 37.4394 47.9261 37.4394C45.931 37.4394 44.3137 38.4542 44.3137 39.706C44.3137 40.9577 45.931 41.9725 47.9261 41.9725Z" fill="#FF7676"/>
<path d="M20.7273 41.9725C22.7224 41.9725 24.3397 40.9577 24.3397 39.706C24.3397 38.4542 22.7224 37.4394 20.7273 37.4394C18.7323 37.4394 17.115 38.4542 17.115 39.706C17.115 40.9577 18.7323 41.9725 20.7273 41.9725Z" fill="#FF7676"/>
<path d="M36.1682 43.3183C36.0265 43.3183 35.814 43.3183 35.6724 43.3183C35.4599 43.3183 35.3182 43.0349 35.3182 42.8224C35.3182 42.61 35.6016 42.4683 35.8141 42.4683C36.239 42.5391 36.664 42.4683 37.089 42.2558C37.3015 42.185 37.4431 41.9725 37.4431 41.76C37.4431 41.5475 37.4431 41.2642 37.2307 41.1225C36.664 40.6267 36.1682 39.9892 35.6724 39.2809C34.185 37.0852 35.8849 34.252 35.9557 34.1812C36.0974 33.9687 36.3099 33.8979 36.5224 34.0395C36.7348 34.1812 36.8057 34.3937 36.664 34.6062C36.664 34.6062 35.2474 37.0852 36.3807 38.7851C36.8057 39.4934 37.3015 40.0601 37.7973 40.4851C38.1514 40.8392 38.3639 41.335 38.2931 41.9017C38.2931 42.3975 37.9389 42.8225 37.514 43.1058C37.089 43.3183 36.664 43.4599 36.1682 43.4599V43.3183Z" fill="#B87448"/>
<path d="M32.8393 47.5681C28.802 47.5681 27.527 44.9474 27.527 44.8765C27.4562 44.664 27.5271 44.3807 27.7395 44.3099C27.952 44.2391 28.2353 44.3099 28.3062 44.5224C28.3062 44.5932 29.4395 46.7181 32.8393 46.7181C36.2391 46.7181 33.2643 46.9306 33.2643 47.1431C33.2643 47.3556 33.0518 47.5681 32.8393 47.5681Z" fill="#B87448"/>
<path d="M23.348 69.3838L25.3313 71.8628C30.1477 77.8125 39.3556 77.3876 43.6054 71.0128L44.7387 69.3129L47.9261 70.3045V72.4294C47.9261 72.4294 56.7798 74.2002 61.2421 79.1583C65.7044 84.1164 68.3251 95.2367 68.3251 95.2367L35.035 95.8742H0.0449219C0.0449219 95.8742 2.31148 81.2832 10.1028 77.0334C17.9649 72.7128 21.3648 72.5003 21.3648 72.5003L20.7273 70.3045L23.348 69.4546V69.3838Z" fill="#00CC82"/>
<g style="mix-blend-mode:multiply" opacity="0.4">
<path d="M34.1851 79.7249C26.6062 79.7249 22.4273 74.7668 22.3564 74.696C22.2856 74.6252 22.3564 74.4835 22.3564 74.4127C22.4273 74.3418 22.5689 74.4127 22.6398 74.4127C22.6398 74.4127 26.7479 79.2999 34.1142 79.2999C41.4806 79.2999 46.0137 73.5627 46.0845 73.4919C46.1553 73.4211 46.297 73.3502 46.3678 73.4919C46.4387 73.5627 46.5095 73.7044 46.3678 73.7752C46.3678 73.7752 41.693 79.7249 34.1142 79.7249H34.1851Z" fill="#61378C"/>
</g>
</svg>
