<svg width="88" height="100" viewBox="0 0 88 100" fill="none" xmlns="http://www.w3.org/2000/svg">
<path d="M78.7347 62.6195C76.2557 58.0331 72.9268 53.9564 70.8727 49.1516C67.7563 42.0172 67.5438 33.9365 66.4814 26.1469C65.4898 18.3574 64.1441 8.82066 57.6278 5.18068C49.9784 0.885509 43.1789 8.96626 43.1789 8.96626C43.1789 8.96626 36.4502 0.885509 28.7299 5.18068C22.2137 8.82066 20.868 18.3574 19.8764 26.1469C18.8848 33.9365 18.6015 42.0172 15.485 49.1516C13.431 53.9564 10.1021 58.0331 7.62307 62.6195C5.14408 67.2059 3.37337 72.6658 4.71911 77.7618C6.06485 82.785 10.1729 86.3522 14.4226 88.9001C23.1345 94.0689 63.0816 94.0689 71.8643 88.9001C76.114 86.3522 80.2221 82.785 81.5678 77.7618C82.9136 72.6658 81.2137 67.2059 78.6639 62.6195H78.7347Z" fill="#AB5300"/>
<path d="M26.7466 41.0709C29.2256 46.0941 28.8007 51.4812 25.7551 53.0828C22.7094 54.6844 18.1764 51.918 15.6974 46.8948C13.2184 41.8717 13.6434 36.4845 16.689 34.8829C19.7346 33.2813 24.2677 36.0477 26.7466 41.0709Z" fill="#DAA797"/>
<path d="M61.24 41.0709C58.761 46.0941 59.186 51.4812 62.2316 53.0828C65.2772 54.6844 69.8103 51.918 72.2892 46.8948C74.7682 41.8717 74.3433 36.4845 71.2977 34.8829C68.252 33.2813 63.719 36.0477 61.24 41.0709Z" fill="#DAA797"/>
<path d="M77.9556 98.7281L44.6663 99.3833H9.67712C9.67712 99.3833 11.802 85.333 19.0265 80.4554C29.6507 76.7427 32.3422 76.7427 32.3422 76.7427L32.9088 72.1563L35.317 53.5924H52.2449L54.6531 72.2291L55.2197 76.6699C55.2197 76.6699 58.0529 76.6699 69.2437 80.601C69.8104 81.0378 70.3061 81.5474 70.8019 82.1298C75.2641 87.2258 77.8848 98.6553 77.8848 98.6553L77.9556 98.7281Z" fill="#E5BAA1"/>
<path d="M54.9364 74.049L52.5282 53.6652H35.1045L32.9796 71.7922C33.9712 74.777 48.7743 75.3594 55.0072 74.049H54.9364Z" fill="#DAA797"/>
<path d="M64.4273 40.8524C64.4273 52.5732 69.3853 70.1907 43.8163 70.1907C18.2473 70.1907 23.2053 52.5732 23.2053 40.8524C23.2053 29.1317 32.4129 19.6678 43.8163 19.6678C55.2197 19.6678 64.4273 29.1317 64.4273 40.8524Z" fill="#E5BAA1"/>
<path d="M55.2905 43.9829C55.2905 45.5844 54.5114 46.822 53.5906 46.822C52.6699 46.822 51.8907 45.5116 51.8907 43.9829C51.8907 42.4541 52.6699 41.1437 53.5906 41.1437C54.5114 41.1437 55.2905 42.4541 55.2905 43.9829Z" fill="#2D2D2D"/>
<path d="M35.9544 46.822C36.8932 46.822 37.6543 45.5509 37.6543 43.9829C37.6543 42.4148 36.8932 41.1437 35.9544 41.1437C35.0156 41.1437 34.2545 42.4148 34.2545 43.9829C34.2545 45.5509 35.0156 46.822 35.9544 46.822Z" fill="#2D2D2D"/>
<path d="M59.0444 52.8644C61.1177 52.8644 62.7983 51.8214 62.7983 50.5348C62.7983 49.2482 61.1177 48.2052 59.0444 48.2052C56.9712 48.2052 55.2905 49.2482 55.2905 50.5348C55.2905 51.8214 56.9712 52.8644 59.0444 52.8644Z" fill="#FF7676"/>
<path d="M30.5006 52.8644C32.5738 52.8644 34.2545 51.8214 34.2545 50.5348C34.2545 49.2482 32.5738 48.2052 30.5006 48.2052C28.4274 48.2052 26.7467 49.2482 26.7467 50.5348C26.7467 51.8214 28.4274 52.8644 30.5006 52.8644Z" fill="#FF7676"/>
<path d="M44.6663 53.8836C44.1705 53.8836 43.8164 53.8108 43.8164 53.8108C43.6747 53.8108 43.6039 53.5924 43.6039 53.4468C43.6039 53.3012 43.8164 53.2284 43.958 53.2284C44.0289 53.2284 46.0829 53.8108 46.862 51.7724L45.2329 49.2972L45.7996 45.3661C45.7996 45.2205 46.012 45.0749 46.1537 45.1477C46.2954 45.1477 46.437 45.2933 46.3662 45.5117L45.7996 49.2244L47.4286 51.7724V51.918C46.7912 53.6652 45.5162 53.9564 44.5955 53.9564L44.6663 53.8836Z" fill="#DAA797"/>
<path d="M43.2497 58.6883C41.7623 58.6883 40.629 58.3972 40.5582 58.3244C40.4165 58.3244 40.3457 58.106 40.3457 57.9604C40.3457 57.8148 40.5582 57.742 40.6998 57.742C40.6998 57.742 43.108 58.3972 45.6578 57.742C48.1368 57.0868 49.1992 55.2668 49.2701 55.194C49.3409 55.0484 49.5534 54.9756 49.695 55.1212C49.8367 55.194 49.9075 55.4124 49.7659 55.558C49.7659 55.6308 48.5618 57.5964 45.8703 58.3244C44.9495 58.5428 44.0996 58.6883 43.3205 58.6883H43.2497Z" fill="#DAA797"/>
<path d="M33.2629 33.2813C37.5126 36.4845 42.8956 37.5037 48.1368 37.8677C51.7491 38.1589 55.5738 38.3045 58.4778 40.4157C60.036 41.5805 61.2401 43.2549 62.3733 44.8565C64.3565 47.6956 66.3397 50.5348 68.3229 53.374C67.7563 47.1132 68.6062 40.8525 69.102 34.5917C69.5978 28.331 69.5978 21.8518 67.3313 16.0278C63.5066 6.1999 52.9532 -0.352061 42.7539 0.812731C38.2209 1.32233 33.8295 3.28792 30.7131 6.63669C27.3133 10.4223 26.2509 15.1542 27.1717 20.1046C28.2341 25.2734 28.6591 29.7141 33.1921 33.1357L33.2629 33.2813Z" fill="#AB5300"/>
<path d="M30.2172 27.8942C30.2172 32.6261 28.659 37.3581 25.8259 41.1437C24.4093 43.1093 22.6386 44.8565 21.9303 47.1861C21.7887 47.7684 21.647 48.3508 21.3637 48.9332C21.0804 49.4428 20.4429 49.8796 19.8763 49.734C19.2389 49.5884 18.9555 48.8604 18.7431 48.2052C17.4681 44.1285 16.1224 40.0517 15.5558 35.8293C14.9892 31.6069 15.2016 27.1662 16.7599 23.235C17.539 21.2694 18.7431 19.4494 20.2305 17.9934C21.2929 16.9742 23.8427 14.6447 25.4717 14.8631C27.2424 15.0815 28.3049 18.7942 28.8715 20.323C29.7214 22.7254 30.1464 25.2734 30.1464 27.8214L30.2172 27.8942Z" fill="#AB5300"/>
<path d="M61.6651 76.5242C60.2485 76.0146 58.9028 75.6506 57.557 75.2866V73.1027L54.7239 72.2291L54.3697 72.0835L53.2365 73.8307C48.9868 80.3826 39.7791 80.8194 34.9628 74.7042L32.9796 72.1563L30.4298 73.0299L31.0672 75.2866C27.5966 75.7962 22.7803 76.8882 17.6807 79.7274C6.77312 85.7698 1.74431 95.4521 0.0444336 99.3833H87.8007C83.2677 91.8849 75.0516 81.1834 61.7359 76.5242H61.6651Z" fill="#077BFF"/>
<g style="mix-blend-mode:multiply" opacity="0.4">
<path d="M31.9171 77.5434C31.9171 77.5434 36.0252 82.6394 43.533 82.6394C51.0408 82.6394 55.6446 76.597 55.6446 76.597" stroke="#61378C" stroke-width="0.6" stroke-miterlimit="10" stroke-linecap="round"/>
</g>
</svg>
